<svg width="569" height="569" viewBox="0 0 569 569" fill="none" xmlns="http://www.w3.org/2000/svg">
<path d="M119.194 302.429C118.421 301.369 118.108 300.306 118.254 299.239C119.114 293.126 119.864 288.549 120.504 285.509C120.938 283.482 121.691 281.459 122.764 279.439C122.811 279.353 122.848 279.262 122.874 279.169L125.004 270.819C125.051 270.62 125.064 270.418 125.044 270.219C124.834 268.499 126.634 267.649 126.254 266.269C126.236 266.206 126.199 266.15 126.148 266.109C126.097 266.068 126.034 266.043 125.968 266.039C125.903 266.035 125.838 266.051 125.782 266.085C125.725 266.119 125.681 266.169 125.654 266.229C125.441 266.709 125.061 266.969 124.514 267.009C124.443 267.014 124.372 267.001 124.306 266.972C124.241 266.943 124.183 266.899 124.139 266.843C124.095 266.787 124.065 266.72 124.052 266.65C124.039 266.58 124.043 266.507 124.064 266.439L124.214 265.969C124.238 265.893 124.285 265.826 124.349 265.777C124.414 265.729 124.493 265.701 124.574 265.699L124.934 265.679C125.187 265.667 125.433 265.592 125.65 265.461C125.867 265.33 126.048 265.147 126.177 264.929C126.306 264.711 126.379 264.465 126.389 264.211C126.399 263.958 126.346 263.707 126.234 263.479L124.584 260.099C124.506 259.936 124.478 259.758 124.504 259.589C124.624 258.789 124.444 257.609 123.964 256.049C123.865 255.711 123.814 255.357 123.814 254.999V249.489C123.814 249.39 123.831 249.288 123.864 249.189C125.151 245.629 125.688 243.252 125.474 242.059C124.641 237.299 124.911 232.516 126.284 227.709C126.37 227.412 126.391 227.099 126.344 226.789L124.834 216.589C124.828 216.556 124.824 216.522 124.824 216.489C124.824 212.356 125.454 208.106 126.714 203.739C126.887 203.155 126.981 202.55 126.994 201.939C127.064 199.499 128.134 197.029 128.004 194.499C127.985 194.055 128.035 193.606 128.154 193.169C128.874 190.569 129.158 187.499 129.004 183.959C128.991 183.68 128.951 183.402 128.884 183.129C128.151 180.002 127.851 178.049 127.984 177.269C128.944 171.456 129.394 166.349 129.334 161.949C129.328 161.651 129.368 161.354 129.454 161.069C130.294 158.302 131.398 155.996 132.764 154.149C132.989 153.845 133.152 153.502 133.244 153.139C135.204 145.139 136.321 136.886 136.594 128.379C136.741 123.946 137.188 119.469 137.934 114.949C137.988 114.617 138.004 114.281 137.984 113.949C137.744 110.682 137.144 105.752 136.184 99.1591C135.878 97.0524 136.028 94.4591 136.634 91.3791C136.714 90.9735 136.751 90.5579 136.744 90.1391C136.598 84.1057 137.171 78.0724 138.464 72.0391C138.537 71.7006 138.564 71.3574 138.544 71.0191C138.271 65.6457 138.184 62.2624 138.284 60.8691C138.418 59.0824 138.444 57.0224 138.364 54.6891C138.291 52.4757 138.928 50.4191 140.274 48.5191C140.375 48.3817 140.504 48.2682 140.652 48.187C140.801 48.1057 140.966 48.0586 141.134 48.0491C146.961 47.7491 152.714 47.1324 158.394 46.1991C163.684 45.3291 170.744 47.5991 173.954 47.4891C174.761 47.4624 175.378 47.3557 175.804 47.1691C176.058 47.0586 176.341 47.0306 176.614 47.0891C178.904 47.5791 182.514 47.1091 185.114 48.0891C186.154 48.4891 187.624 47.9891 189.154 48.1991C196.701 49.2057 204.011 49.8857 211.084 50.2391C213.824 50.3791 215.164 52.2391 217.884 51.4991C220.671 50.7457 223.281 50.2624 225.714 50.0491C225.908 50.034 226.102 50.0705 226.276 50.1549C226.45 50.2393 226.598 50.3685 226.704 50.5291C226.718 50.5424 226.741 50.5991 226.774 50.6991C226.855 50.9117 227.005 51.0903 227.2 51.205C227.394 51.3198 227.622 51.3636 227.844 51.3291C229.378 51.0957 230.741 51.3291 231.934 52.0291C232.436 52.3156 233.014 52.4445 233.594 52.3991C236.594 52.1457 239.941 52.2324 243.634 52.6591C246.288 52.9657 249.624 53.1591 253.644 53.2391C257.398 53.3124 260.921 53.5657 264.214 53.9991C264.55 54.0386 264.892 54.0045 265.214 53.8991L265.924 53.6491C266.116 53.583 266.32 53.5525 266.524 53.5591C270.784 53.6257 274.311 53.9224 277.104 54.4491C277.47 54.5156 277.842 54.5424 278.214 54.5291C281.544 54.3991 287.484 53.5991 291.914 54.1491C294.528 54.4757 296.211 54.6657 296.964 54.7191C302.584 55.1391 306.314 55.4691 308.154 55.7091C309.504 55.8891 312.074 55.5291 313.494 56.2791C313.78 56.4283 314.106 56.481 314.424 56.4291C315.404 56.2757 316.901 56.3957 318.914 56.7891C319.574 56.9224 320.084 56.8057 320.444 56.4391C320.548 56.3419 320.678 56.2821 320.814 56.2691C322.541 56.1024 323.711 56.2791 324.324 56.7991C324.452 56.9072 324.602 56.9836 324.764 57.0219C324.926 57.0601 325.094 57.0592 325.254 57.0191C326.621 56.6924 328.398 56.8257 330.584 57.4191C330.896 57.4986 331.22 57.5289 331.544 57.5091C333.671 57.3624 335.584 57.6191 337.284 58.2791C339.424 59.1057 341.061 59.6257 342.194 59.8391C346.021 60.5791 349.724 60.4191 353.304 59.3591C354.404 59.0324 355.524 59.1291 356.664 59.6491C357.278 59.9357 357.788 59.8724 358.194 59.4591C358.299 59.3547 358.431 59.285 358.574 59.2591C362.421 58.4991 366.018 58.4324 369.364 59.0591C369.721 59.1301 370.09 59.0809 370.414 58.9191C374.068 57.0991 377.901 56.5157 381.914 57.1691C382.384 57.2419 382.837 57.3905 383.254 57.6091C384.888 58.4357 386.031 58.8557 386.684 58.8691C388.358 58.8957 390.534 58.5791 393.214 57.9191C393.724 57.7935 394.252 57.7596 394.774 57.8191C399.054 58.3391 402.694 58.2391 406.714 59.2591C409.528 59.9791 411.101 60.3924 411.434 60.4991C414.364 61.4191 416.134 61.2191 419.604 61.3291C420.11 61.3424 420.609 61.406 421.094 61.5191C423.348 62.0391 425.021 62.1924 426.114 61.9791C428.608 61.4791 431.471 60.9991 434.704 60.5391C435.086 60.4799 435.479 60.5072 435.854 60.6191C440.234 61.8791 443.814 64.0824 446.594 67.2291C451.914 73.2491 459.274 80.0891 470.934 91.3491C471.2 91.6055 471.406 91.9168 471.538 92.2609C471.669 92.6049 471.723 92.973 471.694 93.3391C471.541 95.3191 471.111 98.1324 470.404 101.779C468.878 109.652 468.014 117.626 467.814 125.699C467.694 130.439 466.704 134.559 466.714 138.879C466.734 143.732 466.874 148.146 467.134 152.119C467.201 153.139 467.188 154.339 467.094 155.719C466.961 157.819 467.491 160.039 468.684 162.379C469.451 163.892 470.678 167.476 472.364 173.129C472.457 173.447 472.501 173.778 472.494 174.109C472.461 175.556 472.584 177.832 472.864 180.939C473.144 184.032 473.134 187.839 472.834 192.359C472.814 192.678 472.825 192.996 472.864 193.309C473.364 197.196 473.164 200.726 472.264 203.899C471.771 205.652 471.414 208.416 471.194 212.189C471.168 212.553 471.032 212.896 470.804 213.169C470.344 213.716 470.274 214.502 470.594 215.529C470.699 215.855 470.702 216.204 470.604 216.529C469.991 218.736 470.011 221.046 470.664 223.459C470.75 223.769 470.774 224.092 470.734 224.409C470.468 226.369 470.458 228.086 470.704 229.559C470.764 229.936 470.754 230.319 470.674 230.689C470.094 233.336 469.544 235.152 469.024 236.139C468.906 236.369 468.841 236.622 468.834 236.879C468.814 237.406 468.461 239.212 467.774 242.299C467.434 243.779 466.474 243.979 466.134 245.209C466.043 245.529 466.043 245.869 466.134 246.189C467.148 249.756 467.624 252.969 467.564 255.829C467.552 256.211 467.672 256.589 467.904 256.899C468.611 257.846 469.111 259.109 469.404 260.689C469.464 260.998 469.446 261.317 469.354 261.619C468.528 264.339 468.238 267.106 468.484 269.919C468.517 270.27 468.437 270.624 468.254 270.929C467.874 271.569 466.984 271.939 466.644 273.029C466.438 273.682 466.174 274.232 465.854 274.679C465.647 274.972 465.352 275.189 465.014 275.299L459.164 277.229C458.999 277.282 458.829 277.302 458.664 277.289C456.478 277.076 454.738 277.509 453.444 278.589C453.144 278.831 452.784 278.987 452.404 279.039C451.371 279.172 450.214 279.786 448.934 280.879C448.694 281.087 448.397 281.216 448.084 281.249C447.224 281.342 446.354 281.272 445.474 281.039C445.313 280.995 445.142 281.001 444.983 281.056C444.824 281.111 444.685 281.213 444.584 281.349C441.774 285.179 439.994 287.749 437.174 290.069C437.078 290.153 437.017 290.267 437.004 290.389C436.991 290.669 437.011 290.849 437.064 290.929C437.091 290.971 437.134 291.001 437.182 291.012C437.231 291.024 437.282 291.015 437.324 290.989C437.991 290.549 438.484 290.466 438.804 290.739C438.918 290.832 438.995 290.962 439.024 291.106C439.054 291.25 439.032 291.399 438.964 291.529C438.678 292.089 438.524 292.556 438.504 292.929C438.498 293.013 438.512 293.096 438.546 293.174C438.579 293.251 438.63 293.319 438.696 293.373C438.761 293.426 438.839 293.464 438.922 293.482C439.005 293.501 439.092 293.5 439.174 293.479C439.188 293.472 439.351 293.272 439.664 292.879C439.717 292.814 439.783 292.76 439.858 292.721C439.932 292.683 440.014 292.661 440.098 292.656C440.182 292.651 440.266 292.664 440.345 292.694C440.423 292.724 440.495 292.77 440.554 292.829C441.314 293.576 441.718 294.306 441.764 295.019C441.777 295.239 441.837 295.454 441.941 295.649C442.044 295.844 442.189 296.014 442.364 296.149C444.344 297.696 445.604 298.656 446.144 299.029C446.624 299.362 447.294 299.562 448.154 299.629C448.414 299.649 449.501 299.762 451.414 299.969C451.909 300.021 452.405 299.92 452.834 299.679L459.024 296.149C459.097 296.109 459.175 296.082 459.254 296.069C460.354 295.849 461.114 295.512 461.534 295.059C462.103 294.456 462.816 294.009 463.605 293.759C464.394 293.508 465.234 293.464 466.044 293.629C469.631 294.369 472.771 296.549 475.464 300.169C475.655 300.432 475.909 300.645 476.204 300.789C480.164 302.802 482.954 304.189 484.574 304.949C488.161 306.629 490.821 308.236 492.554 309.769C494.914 311.849 497.074 314.196 499.034 316.809C499.398 317.296 499.595 317.885 499.594 318.489V335.199C499.595 335.484 499.554 335.767 499.474 336.039C498.914 337.972 498.591 339.839 498.504 341.639C498.485 342.108 498.369 342.567 498.164 342.989C495.264 349.049 494.311 355.682 495.304 362.889C495.451 363.949 495.144 365.696 494.384 368.129C494.286 368.446 494.251 368.779 494.284 369.109C494.378 370.142 494.294 371.016 494.034 371.729C493.574 372.996 493.604 374.262 494.124 375.529C494.295 375.942 494.357 376.39 494.304 376.829L493.994 379.499C493.981 379.611 493.988 379.727 494.014 379.839L495.684 386.029C495.769 386.34 495.748 386.674 495.624 386.979C495.014 388.479 495.904 390.689 495.764 392.269C495.478 395.542 495.451 398.386 495.684 400.799C495.724 401.157 495.714 401.517 495.654 401.869C494.694 407.642 494.114 410.822 493.914 411.409C493.314 413.222 493.041 415.136 493.094 417.149C493.208 420.882 493.494 425.012 493.954 429.539C493.988 429.904 493.971 430.271 493.904 430.629L493.534 432.619C493.488 432.888 493.509 433.163 493.594 433.419C494.381 435.719 495.488 438.119 496.914 440.619C497.894 442.339 498.308 443.939 498.154 445.419C498.001 446.952 498.098 449.179 498.444 452.099C498.511 452.617 498.514 453.141 498.454 453.659C498.181 456.039 497.861 458.626 497.494 461.419C497.041 464.859 496.948 467.239 497.214 468.559C497.221 468.579 497.294 470.749 497.434 475.069C497.448 475.48 497.397 475.888 497.284 476.279C496.231 479.966 494.604 483.536 492.404 486.989C492.232 487.255 492.094 487.544 491.994 487.849C490.968 490.816 489.594 492.522 487.874 492.969C487.381 493.096 486.304 493.702 484.644 494.789C483.464 495.562 482.498 496.262 481.744 496.889C481.711 496.916 481.681 496.949 481.654 496.989L475.604 505.839C475.4 506.143 475.134 506.401 474.824 506.599L472.414 508.199C472.342 508.248 472.287 508.318 472.258 508.399C472.229 508.48 472.228 508.568 472.254 508.649C472.328 508.869 471.628 509.766 470.154 511.339C469.91 511.597 469.71 511.898 469.564 512.229C468.544 514.542 466.778 516.222 464.264 517.269C464.027 517.368 463.81 517.511 463.624 517.689C459.238 521.976 454.188 523.159 448.474 521.239C448.236 521.16 447.99 521.119 447.744 521.119H442.504C442.438 521.119 442.37 521.105 442.304 521.079C437.644 518.899 433.928 517.359 431.154 516.459C429.741 515.999 428.104 516.122 426.244 516.829C425.959 516.935 425.663 517.006 425.364 517.039C424.878 517.106 423.054 516.819 419.894 516.179C418.388 515.872 413.944 515.512 406.564 515.099C406.545 515.099 406.524 515.096 406.504 515.089C404.564 514.642 402.518 514.569 400.364 514.869C400.173 514.895 399.992 514.964 399.834 515.069C397.524 516.629 395.504 513.899 393.154 515.239C393.006 515.324 392.835 515.361 392.666 515.345C392.498 515.329 392.34 515.26 392.214 515.149C391.608 514.622 390.774 514.409 389.714 514.509C389.637 514.515 389.562 514.539 389.497 514.58C389.431 514.621 389.376 514.678 389.336 514.744C389.297 514.811 389.275 514.887 389.271 514.964C389.267 515.041 389.282 515.119 389.314 515.189C389.674 515.989 389.841 516.472 389.814 516.639C389.688 517.439 389.314 517.526 388.694 516.899C388.474 516.679 388.428 516.216 388.554 515.509C388.586 515.327 388.556 515.14 388.469 514.977C388.382 514.814 388.243 514.684 388.074 514.609C387.581 514.389 387.088 514.262 386.594 514.229C386.409 514.215 386.224 514.272 386.079 514.389C385.934 514.506 385.839 514.674 385.814 514.859C385.788 515.026 385.771 515.119 385.764 515.139C385.731 515.208 385.682 515.268 385.622 515.314C385.561 515.36 385.491 515.392 385.416 515.405C385.342 515.419 385.266 515.415 385.194 515.393C385.123 515.371 385.058 515.332 385.004 515.279L384.244 514.609C384.073 514.459 383.871 514.349 383.653 514.287C383.435 514.225 383.207 514.212 382.984 514.249L378.674 514.929C378.628 514.936 378.584 514.936 378.544 514.929C375.918 514.649 374.038 514.592 372.904 514.759C368.938 515.332 365.851 515.386 363.644 514.919C361.611 514.486 359.164 513.962 356.304 513.349C354.624 512.989 353.114 513.879 351.884 512.159C350.851 510.712 349.184 508.189 346.884 504.589C346.778 504.418 346.634 504.274 346.462 504.168C346.29 504.062 346.096 503.998 345.894 503.979L343.104 503.739C342.919 503.72 342.732 503.751 342.562 503.829C342.391 503.906 342.244 504.027 342.134 504.179C341.581 504.952 340.291 505.916 338.264 507.069C338.138 507.142 338.027 507.239 337.94 507.354C337.852 507.469 337.789 507.6 337.754 507.739C337.728 507.879 337.694 508.019 337.654 508.159C337.528 508.586 336.541 508.856 334.694 508.969C331.674 509.149 329.198 510.239 327.264 512.239C327.093 512.413 326.889 512.552 326.664 512.646C326.439 512.741 326.198 512.789 325.954 512.789H317.524C317.446 512.789 317.37 512.81 317.304 512.849L310.954 516.179C310.875 516.218 310.79 516.239 310.704 516.239H305.424C305.221 516.239 305.019 516.287 304.834 516.379C301.544 517.989 297.794 518.879 292.584 520.059C292.239 520.139 291.883 520.172 291.524 520.159C288.471 520.026 283.778 519.889 277.444 519.749C277.018 519.736 276.411 519.549 275.624 519.189C275.167 518.98 274.661 518.907 274.164 518.979C272.624 519.206 270.788 518.922 268.654 518.129C267.588 517.729 266.544 517.862 265.524 518.529C264.878 518.956 264.191 518.766 263.464 517.959C263.352 517.837 263.214 517.742 263.062 517.68C262.91 517.617 262.747 517.59 262.584 517.599C262.058 517.626 261.634 517.906 261.314 518.439C261.283 518.495 261.235 518.539 261.176 518.565C261.118 518.591 261.053 518.598 260.99 518.585C260.928 518.572 260.871 518.539 260.829 518.491C260.786 518.443 260.76 518.383 260.754 518.319L260.684 517.649C260.661 517.428 260.565 517.222 260.41 517.064C260.256 516.906 260.053 516.805 259.834 516.779C257.874 516.552 255.631 516.779 253.104 517.459C252.644 517.579 252.251 517.859 251.924 518.299C251.84 518.415 251.732 518.512 251.607 518.583C251.483 518.654 251.346 518.697 251.204 518.709C248.811 518.929 246.604 519.039 244.584 519.039C243.591 519.046 242.654 518.892 241.774 518.579C240.864 518.249 239.224 518.669 237.964 518.349C235.371 517.689 232.754 516.679 230.114 515.319C230.023 515.275 229.942 515.212 229.876 515.135C229.811 515.057 229.762 514.967 229.734 514.869C229.668 514.656 229.548 514.482 229.374 514.349C229.214 514.229 229.061 514.179 228.914 514.199C226.924 514.429 223.874 514.989 222.574 516.879C221.974 517.759 221.341 518.139 220.674 518.019C220.512 517.991 220.344 518.014 220.195 518.086C220.046 518.157 219.924 518.274 219.844 518.419C219.578 518.926 219.294 519.206 218.994 519.259C218.481 519.352 218.144 519.222 217.984 518.869C217.671 518.196 217.531 517.786 217.564 517.639C217.602 517.466 217.571 517.295 217.479 517.156C217.386 517.017 217.238 516.921 217.061 516.884C216.885 516.847 216.691 516.873 216.517 516.957C216.343 517.041 216.2 517.176 216.114 517.339C215.768 517.972 215.211 518.019 214.444 517.479C213.574 516.869 212.604 516.079 211.684 516.089C210.124 516.096 208.588 515.186 207.074 513.359C206.348 512.479 205.351 512.179 204.084 512.459C203.724 512.543 203.407 512.761 203.194 513.069C201.854 515.039 200.204 515.969 198.404 518.019C196.404 520.279 193.728 521.212 190.374 520.819C190.144 520.793 189.908 520.817 189.684 520.889C189.011 521.122 188.511 521.446 188.184 521.859C187.959 522.156 187.636 522.362 187.274 522.439C186.261 522.666 185.264 522.699 184.284 522.539C183.191 522.359 182.251 522.392 181.464 522.639C178.384 523.606 175.018 524.189 171.364 524.389C171.093 524.409 170.824 524.334 170.604 524.179C170.418 524.052 170.271 523.992 170.164 523.999C167.104 524.019 163.864 524.279 163.454 523.459C163.449 523.447 163.44 523.436 163.429 523.429C163.418 523.422 163.406 523.419 163.394 523.419L155.974 522.839C155.84 522.833 155.707 522.879 155.604 522.969C155.104 523.402 154.791 523.746 154.664 523.999C154.603 524.132 154.493 524.235 154.356 524.288C154.22 524.34 154.069 524.337 153.934 524.279C153.394 524.052 152.881 523.666 152.394 523.119C152.331 523.053 152.255 523.001 152.171 522.967C152.086 522.932 151.996 522.916 151.904 522.919L143.964 523.329C143.945 523.329 143.924 523.336 143.904 523.349C142.891 523.842 141.521 523.916 139.794 523.569C139.728 523.556 139.657 523.552 139.584 523.559L134.654 523.909C134.531 523.915 134.413 523.957 134.314 524.029C133.481 524.602 132.678 524.646 131.904 524.159C131.679 524.017 131.423 523.932 131.158 523.911C130.893 523.89 130.628 523.934 130.384 524.039C128.691 524.766 127.128 524.869 125.694 524.349C125.284 524.202 124.831 524.223 124.434 524.409C123.134 525.029 121.914 525.156 120.774 524.789C120.642 524.749 120.5 524.729 120.354 524.729L104.264 524.969C104.099 524.972 103.939 524.908 103.82 524.792C103.7 524.676 103.63 524.517 103.624 524.349C103.604 523.882 103.371 523.682 102.924 523.749C102.855 523.76 102.783 523.746 102.723 523.709C102.663 523.673 102.617 523.616 102.594 523.549C102.574 523.482 102.634 523.406 102.774 523.319C102.805 523.297 102.829 523.268 102.846 523.235C102.863 523.201 102.871 523.164 102.87 523.126C102.869 523.089 102.859 523.052 102.84 523.02C102.822 522.987 102.796 522.959 102.764 522.939C100.998 521.799 100.558 520.289 101.444 518.409C101.589 518.107 101.661 517.774 101.654 517.439C101.608 515.852 101.858 514.179 102.404 512.419C102.504 512.08 102.565 511.731 102.584 511.379C102.711 508.692 102.928 506.296 103.234 504.189C103.654 501.316 103.851 498.932 103.824 497.039C103.731 491.212 103.794 487.376 104.014 485.529C104.024 485.443 104.016 485.356 103.99 485.274C103.964 485.192 103.92 485.116 103.863 485.052C103.805 484.987 103.734 484.936 103.655 484.901C103.576 484.866 103.491 484.848 103.404 484.849C103.158 484.849 102.994 484.742 102.914 484.529C102.893 484.479 102.883 484.424 102.887 484.369C102.89 484.313 102.907 484.259 102.934 484.209L105.164 480.349C105.571 479.64 105.706 478.808 105.544 478.009C105.114 475.959 105.044 474.609 104.464 472.819C103.894 471.059 105.024 469.849 104.244 468.029C104.177 467.879 104.149 467.714 104.163 467.55C104.177 467.386 104.233 467.227 104.324 467.089C104.364 467.029 104.408 466.962 104.454 466.889C104.534 466.777 104.588 466.647 104.614 466.509C105.921 459.456 106.978 454.766 107.784 452.439C108.918 449.152 110.068 444.976 111.234 439.909C111.241 439.862 111.248 438.349 111.254 435.369C111.254 434.196 111.394 432.709 111.674 430.909C112.568 425.009 112.251 419.089 110.724 413.149C110.511 412.316 111.014 410.316 112.234 407.149C112.341 406.856 112.425 406.555 112.484 406.249C112.891 404.082 113.574 401.876 114.534 399.629C114.801 399.002 114.684 397.736 114.184 395.829C114.106 395.527 114.106 395.211 114.184 394.909C114.524 393.569 113.794 391.689 113.204 388.989C113.145 388.705 113.145 388.413 113.204 388.129C113.771 385.576 113.831 382.642 113.384 379.329C113.339 378.989 113.391 378.643 113.534 378.329C113.874 377.589 113.944 376.912 113.744 376.299C112.684 373.019 112.494 370.169 113.174 367.749C113.294 367.319 113.341 366.869 113.314 366.419C113.088 363.179 113.448 359.996 114.394 356.869C114.506 356.496 114.513 356.099 114.414 355.719C113.954 353.926 114.078 352.269 114.784 350.749C115.311 349.609 115.708 348.582 115.974 347.669C117.614 342.056 118.664 336.299 119.124 330.399C119.238 328.886 119.511 327.566 119.944 326.439C120.754 324.299 119.704 322.759 119.994 320.659C120.421 317.619 121.231 314.289 122.424 310.669C122.516 310.407 122.537 310.121 122.484 309.839L121.954 306.949C121.926 306.792 121.865 306.643 121.775 306.512C121.686 306.381 121.569 306.271 121.434 306.189C120.768 305.782 120.244 304.972 119.864 303.759C119.712 303.282 119.486 302.833 119.194 302.429ZM292.344 164.669C292.038 165.636 292.431 166.126 293.524 166.139C293.597 166.141 293.667 166.166 293.725 166.209C293.783 166.253 293.826 166.314 293.848 166.383C293.87 166.452 293.87 166.527 293.848 166.596C293.826 166.665 293.783 166.726 293.724 166.769C292.338 167.816 292.078 169.142 292.944 170.749C293.073 170.98 293.284 171.155 293.534 171.239C294.441 171.512 294.581 172.336 293.954 173.709C293.748 174.176 293.744 174.679 293.944 175.219C294.164 175.819 294.074 176.289 293.674 176.629C293.622 176.673 293.58 176.728 293.552 176.79C293.524 176.853 293.511 176.921 293.514 176.989L294.284 193.299C294.291 193.473 294.234 193.644 294.124 193.779C293.684 194.312 293.668 194.999 294.074 195.839C294.152 195.996 294.19 196.169 294.187 196.341C294.183 196.514 294.138 196.681 294.054 196.829C293.701 197.476 293.554 197.989 293.614 198.369C293.714 198.942 293.828 200.672 293.954 203.559C294.041 205.592 293.931 207.292 293.624 208.659C293.238 210.386 293.434 212.879 294.214 216.139C294.234 216.219 294.241 216.303 294.234 216.389L294.114 219.039C294.109 219.166 294.129 219.292 294.174 219.411C294.219 219.53 294.287 219.638 294.375 219.73C294.463 219.821 294.569 219.894 294.685 219.944C294.802 219.994 294.928 220.019 295.054 220.019H296.414C296.513 220.02 296.609 220.047 296.693 220.1C296.776 220.152 296.844 220.226 296.887 220.314C296.931 220.403 296.949 220.501 296.94 220.599C296.93 220.697 296.894 220.791 296.834 220.869C296.554 221.242 296.444 221.552 296.504 221.799C296.556 221.981 296.667 222.141 296.82 222.252C296.972 222.363 297.157 222.418 297.344 222.409C303.091 222.076 309.708 221.996 317.194 222.169C320.654 222.249 323.638 222.272 326.144 222.239C328.478 222.212 331.458 222.272 335.084 222.419C336.304 222.469 337.914 223.279 338.654 222.869C339.421 222.449 340.294 222.262 341.274 222.309C342.021 222.342 344.844 222.229 349.744 221.969C349.931 221.956 350.109 221.875 350.244 221.739L353.744 218.249C353.849 218.144 353.927 218.015 353.97 217.872C354.014 217.729 354.022 217.577 353.994 217.429C353.641 215.569 353.464 213.052 353.464 209.879C353.464 209.746 353.521 209.036 353.634 207.749C353.714 206.809 353.594 204.776 353.274 201.649C353.261 201.542 353.371 201.262 353.604 200.809C353.723 200.565 353.791 200.296 353.804 200.019L354.054 192.659C354.055 192.596 354.042 192.533 354.018 192.475C353.994 192.417 353.959 192.364 353.914 192.319C353.541 191.946 353.524 191.222 353.864 190.149C353.958 189.869 353.991 189.492 353.964 189.019C353.791 185.612 353.714 183.532 353.734 182.779C353.784 180.989 354.594 179.579 354.244 177.879C354.211 177.706 354.201 177.528 354.214 177.349C354.448 174.896 354.684 172.609 354.924 170.489C355.051 169.369 355.014 168.129 354.814 166.769C354.601 165.396 354.964 164.099 355.904 162.879C355.952 162.818 355.986 162.749 356.006 162.674C356.027 162.6 356.032 162.522 356.021 162.446C356.011 162.37 355.986 162.296 355.947 162.23C355.908 162.163 355.856 162.105 355.794 162.059C353.634 160.429 355.734 157.959 353.964 156.109C353.738 155.869 353.6 155.555 353.574 155.219C353.488 154.086 353.071 152.999 352.324 151.959C352.279 151.897 352.251 151.824 352.241 151.748C352.231 151.672 352.241 151.594 352.269 151.523C352.296 151.451 352.342 151.388 352.4 151.338C352.459 151.289 352.529 151.255 352.604 151.239C353.411 151.066 353.868 150.549 353.974 149.689C354.005 149.454 354.085 149.221 354.207 149.015C354.328 148.809 354.486 148.639 354.662 148.522C354.839 148.405 355.028 148.347 355.208 148.353C355.388 148.36 355.553 148.431 355.684 148.559C355.878 148.746 355.978 149.176 355.984 149.849C355.988 150.001 356.043 150.149 356.139 150.268C356.236 150.388 356.368 150.472 356.516 150.506C356.663 150.541 356.816 150.525 356.95 150.46C357.084 150.395 357.191 150.285 357.254 150.149C357.534 149.529 358.028 148.822 358.734 148.029C358.785 147.971 358.849 147.926 358.92 147.898C358.992 147.87 359.069 147.859 359.145 147.867C359.222 147.875 359.295 147.901 359.359 147.943C359.424 147.985 359.477 148.042 359.514 148.109L360.094 149.099C360.127 149.155 360.172 149.203 360.225 149.24C360.279 149.277 360.339 149.302 360.404 149.312C360.468 149.323 360.533 149.319 360.596 149.301C360.658 149.283 360.716 149.252 360.764 149.209C361.378 148.669 361.634 148.189 361.534 147.769C361.341 146.896 360.601 146.136 359.314 145.489C356.988 144.296 354.948 143.142 353.194 142.029C352.901 141.849 351.858 141.576 350.064 141.209C349.903 141.178 349.737 141.186 349.578 141.231C349.42 141.276 349.275 141.358 349.154 141.469C348.341 142.229 347.101 142.446 345.434 142.119C342.494 141.546 339.144 141.216 335.384 141.129C334.959 141.116 334.544 140.988 334.184 140.759C333.091 140.066 331.874 139.732 330.534 139.759C330.04 139.766 329.55 139.67 329.094 139.479C324.548 137.566 319.321 136.006 313.414 134.799C313.271 134.768 313.121 134.769 312.976 134.804C312.83 134.839 312.693 134.905 312.574 134.999C308.748 137.999 304.864 138.919 300.924 137.759C300.451 137.619 300.058 137.649 299.744 137.849C299.484 138.009 299.438 138.342 299.604 138.849C299.647 138.986 299.643 139.133 299.592 139.265C299.541 139.398 299.447 139.509 299.324 139.579L296.464 141.229C296.254 141.35 296.081 141.527 295.967 141.741C295.852 141.955 295.799 142.197 295.814 142.439C295.861 143.252 295.608 143.809 295.054 144.109C294.865 144.21 294.7 144.35 294.569 144.518C294.438 144.687 294.344 144.882 294.294 145.089C293.974 146.382 293.938 147.419 294.184 148.199C294.578 149.459 294.618 150.439 294.304 151.139C293.871 152.106 293.708 153.766 293.814 156.119C293.834 156.457 293.742 156.791 293.554 157.069C292.074 159.282 291.611 161.882 292.164 164.869C292.111 164.749 292.121 164.652 292.194 164.579C292.209 164.565 292.227 164.556 292.247 164.553C292.267 164.55 292.288 164.555 292.305 164.565C292.322 164.575 292.335 164.591 292.343 164.61C292.35 164.629 292.35 164.65 292.344 164.669ZM274.174 419.419C273.601 420.486 273.394 421.702 273.554 423.069C273.561 423.129 273.558 423.189 273.544 423.249L272.654 426.859C272.604 427.057 272.623 427.267 272.708 427.453C272.794 427.638 272.941 427.789 273.124 427.879C275.018 428.806 276.451 429.322 277.424 429.429C286.298 430.369 295.601 430.056 305.334 428.489C305.494 428.462 305.655 428.452 305.814 428.459L312.924 428.729C312.944 428.736 312.964 428.742 312.984 428.749L316.864 429.929C317.102 430.001 317.354 430.022 317.604 429.989L325.074 428.989C325.258 428.969 325.444 429 325.614 429.079C326.048 429.292 326.561 429.382 327.154 429.349C330.494 429.176 333.141 428.809 335.094 428.249C335.65 428.09 336.226 428.033 336.794 428.079C339.601 428.319 341.921 428.626 343.754 428.999C344.048 429.059 344.328 429.039 344.594 428.939C344.894 428.826 345.074 428.709 345.134 428.589C345.233 428.379 345.395 428.205 345.598 428.092C345.801 427.979 346.034 427.933 346.264 427.959L351.294 428.529C351.403 428.541 351.514 428.522 351.614 428.475C351.715 428.427 351.801 428.352 351.864 428.259L352.294 427.639C352.343 427.568 352.405 427.507 352.477 427.459C352.549 427.412 352.629 427.38 352.714 427.364C352.799 427.348 352.886 427.349 352.97 427.367C353.054 427.385 353.134 427.42 353.204 427.469L354.044 428.039C354.128 428.096 354.226 428.128 354.329 428.132C354.431 428.135 354.534 428.11 354.624 428.059L357.644 426.319C357.806 426.229 357.933 426.084 358.004 425.909C358.331 425.116 358.898 424.409 359.704 423.789C359.764 423.744 359.835 423.717 359.909 423.711C359.983 423.704 360.057 423.718 360.123 423.751C360.19 423.785 360.246 423.836 360.285 423.899C360.324 423.962 360.344 424.035 360.344 424.109V424.879C360.345 425.1 360.426 425.312 360.572 425.476C360.717 425.64 360.918 425.745 361.134 425.769C361.788 425.849 362.364 425.792 362.864 425.599C363.031 425.534 363.18 425.431 363.298 425.297C363.416 425.163 363.501 425.002 363.544 424.829C363.978 423.029 364.071 422.016 363.824 421.789C363.709 421.679 363.639 421.53 363.628 421.371C363.617 421.212 363.666 421.054 363.764 420.929C364.211 420.369 364.181 419.436 363.674 418.129C363.615 417.982 363.59 417.823 363.6 417.664C363.611 417.505 363.656 417.35 363.734 417.209C365.264 414.509 363.664 411.619 363.944 409.809C364.218 407.962 364.341 405.579 364.314 402.659C364.301 401.896 364.389 401.136 364.574 400.399C365.128 398.159 365.321 395.779 365.154 393.259C365.024 391.399 365.674 390.599 365.284 388.869C365.244 388.705 365.259 388.531 365.328 388.374C365.396 388.217 365.514 388.086 365.664 387.999L365.934 387.839C366.04 387.777 366.131 387.692 366.198 387.592C366.266 387.491 366.309 387.377 366.324 387.259C366.518 385.732 366.828 383.709 367.254 381.189C367.401 380.309 367.668 379.386 368.054 378.419C368.454 377.412 368.424 376.209 367.964 374.809C367.644 373.839 367.864 373.319 368.214 372.239C368.358 371.814 368.383 371.36 368.284 370.929C367.858 368.936 368.064 366.939 368.904 364.939C369.644 363.169 369.374 361.799 369.824 360.399C369.873 360.249 369.879 360.088 369.842 359.935C369.805 359.781 369.726 359.641 369.614 359.529C368.584 358.529 367.044 356.459 368.274 355.159C368.382 355.045 368.453 354.9 368.476 354.744C368.499 354.589 368.474 354.43 368.404 354.289C368.164 353.802 368.214 353.269 368.554 352.689C368.649 352.53 368.702 352.348 368.707 352.163C368.712 351.977 368.67 351.794 368.584 351.629C368.004 350.502 367.634 349.079 367.474 347.359C367.121 343.612 366.971 340.519 367.024 338.079C367.037 337.752 366.923 337.43 366.704 337.179C365.724 336.072 364.544 335.526 363.164 335.539C362.836 335.546 362.517 335.632 362.234 335.789C359.088 337.556 357.144 338.562 356.404 338.809C355.124 339.222 353.171 339.122 350.544 338.509C350.112 338.403 349.67 338.336 349.224 338.309C339.984 337.689 334.274 337.132 332.094 336.639C326.714 335.429 324.174 334.509 320.034 335.619C317.721 336.232 315.044 335.972 312.004 334.839C311.853 334.782 311.687 334.777 311.533 334.824C311.379 334.871 311.246 334.968 311.154 335.099L310.934 335.439C310.834 335.584 310.687 335.691 310.518 335.741C310.349 335.792 310.168 335.784 310.004 335.719C308.951 335.306 307.354 335.142 305.214 335.229C304.548 335.262 303.877 335.153 303.244 334.909C300.364 333.816 297.588 333.632 294.914 334.359C292.648 334.979 290.924 335.179 289.744 334.959C289.643 334.938 289.536 334.947 289.438 334.984C289.339 335.021 289.251 335.085 289.184 335.169C288.884 335.549 288.421 335.562 287.794 335.209C286.848 334.662 286.041 334.069 285.374 333.429C285.303 333.358 285.217 333.304 285.123 333.269C285.029 333.234 284.929 333.219 284.829 333.226C284.729 333.232 284.631 333.26 284.542 333.307C284.454 333.354 284.376 333.42 284.314 333.499C283.954 333.972 283.438 334.739 282.764 335.799C282.558 336.112 282.508 336.949 282.614 338.309C282.734 339.849 282.201 340.926 281.014 341.539C280.903 341.598 280.807 341.683 280.734 341.787C280.661 341.891 280.613 342.012 280.594 342.139C280.554 342.406 280.304 342.649 279.844 342.869C279.818 342.884 279.733 342.964 279.604 343.095C279.475 343.226 279.31 343.4 279.134 343.589C278.441 344.349 278.148 345.266 278.254 346.339C278.299 346.788 278.17 347.236 277.894 347.589C276.468 349.416 275.844 351.216 276.024 352.989C276.04 353.149 276.016 353.309 275.955 353.458C275.894 353.606 275.798 353.737 275.674 353.839C274.448 354.846 274.204 355.866 274.944 356.899C275.147 357.18 275.265 357.513 275.284 357.859C275.378 359.719 275.214 360.979 274.794 361.639C274.755 361.7 274.728 361.767 274.716 361.839C274.703 361.91 274.706 361.983 274.723 362.053C274.739 362.123 274.77 362.189 274.814 362.247C274.857 362.305 274.912 362.353 274.974 362.389C275.154 362.496 275.378 362.756 275.644 363.169C275.838 363.462 275.744 363.962 275.364 364.669C275.124 365.122 275.098 365.569 275.284 366.009C275.41 366.312 275.468 366.636 275.454 366.959C275.354 369.819 274.714 372.019 275.424 374.629C275.521 375.001 275.471 375.392 275.284 375.719C275.011 376.206 274.934 376.902 275.054 377.809C275.074 377.967 275.061 378.128 275.014 378.279L271.874 388.299C271.75 388.684 271.522 389.027 271.214 389.289C268.814 391.329 269.924 398.219 269.754 399.409C269.736 399.563 269.76 399.718 269.823 399.859C269.887 400 269.987 400.121 270.114 400.209C270.708 400.622 271.071 401.102 271.204 401.649C271.591 403.296 272.168 404.496 272.934 405.249C273.048 405.36 273.139 405.492 273.201 405.638C273.263 405.784 273.295 405.941 273.294 406.099C273.294 407.629 272.804 408.809 273.274 409.939C273.741 411.039 274.178 411.896 274.584 412.509C274.716 412.712 274.792 412.943 274.804 413.179C274.858 414.212 274.764 414.869 274.524 415.149C274.369 415.33 274.284 415.564 274.284 415.809L274.254 419.069C274.254 419.194 274.227 419.314 274.174 419.419Z" fill="white"/>
</svg>
