<svg width="569" height="569" viewBox="0 0 569 569" fill="none" xmlns="http://www.w3.org/2000/svg">
<path fill-rule="evenodd" clip-rule="evenodd" d="M496.664 482.229C496.662 482.226 496.66 482.223 496.657 482.22L496.664 482.229ZM111.404 366.444C111.394 366.454 111.387 366.462 111.381 366.468C111.386 366.462 111.396 366.452 111.404 366.444Z" fill="white"/>
<path fill-rule="evenodd" clip-rule="evenodd" d="M223.477 206.354C223.479 206.352 223.474 206.356 223.477 206.354L223.479 206.352C223.483 206.349 223.489 206.344 223.49 206.343C223.487 206.346 223.483 206.349 223.479 206.352L223.477 206.354Z" fill="white"/>
<path fill-rule="evenodd" clip-rule="evenodd" d="M223.49 206.343C223.486 206.346 223.483 206.349 223.479 206.352C223.483 206.349 223.489 206.344 223.49 206.343Z" fill="white"/>
<path d="M496.664 482.229L496.657 482.22C494.822 479.959 493.597 478.449 491.485 476.665C487.407 473.199 483.897 469.158 480.956 464.541C480.774 464.251 480.56 463.981 480.32 463.735C476.709 460.023 474.611 457.652 474.026 456.623C472.345 453.659 470.724 451.328 469.16 449.633C468.459 448.871 467.598 448.05 466.676 447.169C464.713 445.294 462.466 443.148 460.853 440.73C459.855 439.223 458.118 436.983 455.642 434.009C453.674 431.628 450.506 427.254 446.139 420.886C443.845 417.551 440.623 415.484 437.736 413.632C436.524 412.855 435.371 412.115 434.371 411.335C432.593 409.953 430.595 408.914 428.605 407.879C426.797 406.939 424.996 406.003 423.372 404.815C421.583 403.513 420.872 401.699 421.236 399.376C421.305 398.953 421.253 398.519 421.087 398.122C420.047 395.629 419.352 394.186 419.003 393.791C415.323 389.696 412.904 386.779 411.746 385.04C411.666 384.925 411.576 384.819 411.478 384.725L406.571 380.24C406.501 380.177 406.428 380.121 406.352 380.072C404.334 378.849 402.984 377.802 402.301 376.932C399.104 372.87 396.038 369.238 393.102 366.036C392.026 364.854 391.202 363.461 390.681 361.944L389.748 359.202C389.597 358.761 389.36 358.352 389.05 357.999C386.336 354.951 384.284 351.964 382.893 349.037C382.449 348.111 381.886 347.246 381.217 346.466C377.992 342.732 374.956 338.214 372.111 332.91C371.195 331.219 369.461 328.851 368.41 328.128C364.433 325.418 362.165 323.708 361.604 322.998C360.682 321.83 359.913 320.778 359.171 319.762C357.798 317.884 356.513 316.125 354.502 313.969C351.599 310.856 349.255 306.782 347.274 303.338C346.261 301.577 345.343 299.981 344.492 298.761C344.318 298.512 344.24 298.207 344.274 297.902C344.482 296.107 344.883 294.913 345.477 294.319C346.013 293.788 346.54 293.277 347.056 292.777C349.547 290.361 351.794 288.182 353.682 284.999C356.558 280.152 358.415 276.934 359.255 275.345C359.69 274.513 360.376 271.851 361.315 267.358C361.5 266.504 361.794 265.676 362.19 264.896C363.301 262.723 364.29 260.842 365.196 259.118C367.532 254.673 369.321 251.27 371.248 246.595C373.149 242.002 374.645 238.224 375.735 235.258C376.194 234.018 376.334 232.698 376.156 231.299C375.873 228.964 375.956 226.493 376.405 223.884C376.639 222.569 377.491 220.779 378.961 218.514C380.485 216.159 381.641 212.986 382.427 208.996C382.999 206.067 383.497 203.198 383.922 200.39C384.223 198.41 385.064 195.89 386.213 194.394C390.037 189.447 392.614 185.829 393.942 183.538C394.24 183.021 395.142 180.874 396.649 177.098C396.818 176.675 397.031 176.274 397.283 175.901C399.278 172.879 401.929 169.216 405.235 164.912C406.586 163.155 407.305 161.425 407.391 159.725C407.586 155.668 407.661 154.492 409.834 151.066C414.745 143.321 418.748 135.166 421.844 126.601C422.406 125.054 422.61 123.14 422.456 120.858C422.444 120.696 422.392 120.539 422.304 120.401C422.216 120.262 422.095 120.147 421.951 120.065C419.98 118.959 418.823 118.38 418.479 118.325C413.576 117.556 410.481 117.017 409.195 116.708C407.964 116.416 406.638 116.349 405.218 116.509C402.875 116.766 401.516 116.811 401.139 116.645C400.849 116.514 400.521 116.499 400.226 116.606C399.381 116.907 395.726 116.973 389.26 116.805C386.051 116.723 377.619 117.536 363.966 119.243C363.375 119.322 362.772 119.288 362.188 119.141C353.542 116.991 344.713 117.432 335.701 120.464C335.388 120.568 335.059 120.62 334.728 120.618C330.74 120.593 326.558 121.159 322.183 122.317C321.05 122.614 319.864 122.705 318.708 122.793C317.589 122.879 316.499 122.962 315.513 123.229C309.263 124.905 303.047 125.929 296.865 126.299C296.419 126.33 294.959 126.856 292.485 127.875C288.834 129.38 285.442 130.313 282.261 131.187C279.94 131.825 277.731 132.433 275.615 133.209C274.398 133.651 272.712 134.075 270.558 134.482C270.062 134.576 269.59 134.769 269.169 135.048C268.747 135.328 268.386 135.689 268.105 136.111L263.164 143.617C262.937 143.955 262.755 144.322 262.624 144.708C261.81 147.004 260.91 149.244 259.923 151.429C258.627 154.296 257.816 157.274 257.016 160.21C256.202 163.197 255.4 166.14 254.112 168.878C253.976 169.171 253.889 169.484 253.853 169.804C253.745 170.858 253.385 171.883 252.772 172.879C252.338 173.597 252.337 174.171 252.768 174.602C253.199 175.025 253.228 175.544 252.855 176.159C250.729 179.709 249.264 182.919 248.462 185.788C247.834 188.046 247.049 190.086 246.109 191.908C245.114 193.839 244.46 196.239 244.145 199.108C244.128 199.269 244.139 199.412 244.179 199.537C244.257 199.755 244.274 199.99 244.227 200.215C242.947 206.746 242.124 210.668 238.385 215.663C238.175 215.948 237.987 216.25 237.825 216.566C236.65 218.848 235.496 220.735 234.364 222.227C233.786 223 233.33 223.576 232.998 223.955C231.598 225.555 230.61 227.006 230.035 228.306C229.601 229.279 228.548 230.145 226.874 230.906C226.804 230.936 226.73 230.94 226.664 230.917C226.528 230.872 226.435 230.757 226.385 230.572C226.37 230.506 226.375 230.437 226.4 230.374C226.426 230.312 226.469 230.259 226.526 230.224C227.317 229.686 227.744 229.028 227.808 228.25C227.813 228.172 227.8 228.093 227.769 228.022C227.738 227.95 227.69 227.886 227.629 227.837C227.569 227.787 227.497 227.753 227.42 227.736C227.344 227.72 227.264 227.723 227.189 227.743C226.873 227.828 226.581 227.978 226.312 228.193C225.974 228.463 225.578 228.662 225.16 228.769C224.742 228.876 224.316 228.888 223.924 228.805C223.532 228.721 223.186 228.544 222.92 228.291C222.653 228.038 222.474 227.717 222.4 227.359C222.327 227.002 222.321 225.153 222.382 221.811C222.391 221.379 222.277 220.954 222.054 220.588C221.614 219.878 221.601 219.104 222.015 218.266C222.12 218.057 222.173 217.825 222.169 217.592C222.164 217.358 222.103 217.129 221.99 216.925L221.868 216.712C221.744 216.37 221.706 215.998 221.758 215.626L222.471 210.619C222.494 210.447 222.467 210.271 222.393 210.113C221.994 209.3 221.909 208.443 222.14 207.543C222.355 206.729 222.751 206.347 223.328 206.395C223.357 206.398 223.394 206.392 223.422 206.383C223.43 206.38 223.438 206.377 223.445 206.373C223.453 206.369 223.46 206.365 223.466 206.361L223.477 206.354L223.479 206.352L223.49 206.343C223.502 206.332 223.513 206.32 223.522 206.308C223.529 206.297 223.535 206.286 223.541 206.274C223.552 206.248 223.558 206.22 223.557 206.192C223.561 206.025 223.562 205.931 223.561 205.911C223.557 205.863 223.542 205.817 223.518 205.776C223.493 205.734 223.46 205.699 223.42 205.672C223.38 205.646 223.335 205.629 223.287 205.622C223.239 205.615 223.191 205.619 223.145 205.634C222.869 205.716 222.646 205.725 222.476 205.661C222.347 205.608 222.238 205.515 222.168 205.396C222.098 205.276 222.07 205.138 222.088 205.002C222.31 203.347 222.195 202.228 221.742 201.646C221.739 201.64 221.736 201.634 221.734 201.628C221.731 201.618 221.729 201.608 221.729 201.596L221.257 191.497C221.247 191.306 221.192 191.121 221.097 190.955C220.444 189.783 220.353 188.626 220.824 187.485C220.87 187.377 220.881 187.258 220.855 187.143L219.479 181.49C219.453 181.374 219.399 181.269 219.322 181.189C217.858 179.714 216.967 177.67 216.648 175.057C216.304 172.232 215.653 168.93 214.695 165.151C214.609 164.803 214.562 164.449 214.556 164.097C214.506 160.921 214.602 157.774 214.842 154.656C214.898 153.954 214.725 153.371 214.547 152.775C214.313 151.988 214.072 151.179 214.346 150.047C214.502 149.377 214.235 148.664 213.546 147.908C213.316 147.659 213.16 147.348 213.095 147.011C212.707 144.83 212.639 143.074 212.893 141.745C212.956 141.385 212.893 141.013 212.714 140.693C212.076 139.547 212.132 138.512 212.882 137.589C213.071 137.364 213.182 137.083 213.198 136.79C213.57 130.506 213.393 123.362 212.667 115.356C212.586 114.503 212.606 113.644 212.725 112.799C213.155 109.711 213.162 105.948 212.749 101.511C211.634 89.6341 209.394 79.0688 206.029 69.8147C205.927 69.541 205.791 69.2795 205.625 69.0359C204.514 67.4351 204.013 65.6869 204.121 63.7913C204.136 63.5604 204.079 63.3306 203.959 63.1334C203.838 62.9362 203.659 62.7812 203.446 62.6899C203.234 62.5985 202.998 62.5752 202.772 62.6231C202.545 62.6711 202.339 62.788 202.182 62.9577C197.969 67.5253 192.771 69.0162 186.586 67.4304C182.983 66.509 180.616 65.6724 179.486 64.9207C179.285 64.7916 179.151 64.6589 179.083 64.5224C179.046 64.4333 178.986 64.3597 178.911 64.3116C177.772 63.507 176.781 63.1047 175.94 63.1048C174.971 63.0985 174.098 62.9501 173.321 62.6595C168.494 60.8647 165.415 62.9488 163.613 67.4758C162.23 70.9379 160.083 74.6595 157.173 78.6405C154.051 82.9132 152.538 87.5537 150.877 92.6502C150.423 94.0415 149.958 95.4667 149.447 96.9277C149.378 97.1235 149.309 97.3196 149.24 97.5158C147.531 102.387 148.975 63.788 143.582 65.9838C143.532 66.0042 143.495 66.0217 143.452 66.0416C143.364 66.0833 143.278 66.124 143.182 66.1399C143.04 66.1633 142.895 66.1564 142.758 66.1198L141.844 65.8902C141.716 65.8563 141.582 65.8496 141.45 65.8708C141.319 65.8919 141.192 65.9402 141.079 66.0128C137.711 65.4206 138.741 65.9248 137.746 66.0399C136.751 66.1551 134.49 65.9886 131.228 65.9016C127.28 65.7963 126.926 66.7997 126.427 66.8275C125.149 66.8986 124.007 66.5028 124.071 66.1791C124.1 66.028 124.086 65.8716 124.027 65.7295C123.968 65.5874 123.867 65.4663 123.739 65.3818C123.61 65.2973 123.459 65.2534 123.305 65.2556C123.151 65.2578 123.001 65.3061 122.875 65.3942C121.733 66.1921 120.887 66.7668 119.976 67.3865C119.391 67.7843 118.779 68.2009 118.042 68.7077C117.557 69.0409 117.454 67.8756 117.162 68.386C116.87 68.8964 116.698 69.4661 116.653 70.0526C113.894 69.3692 115.199 65.8209 111.357 66.4348C107.748 67.0115 109.192 72.6513 105.898 74.1698C104.414 74.8533 102.958 74.794 101.531 73.992C101.275 73.8429 80.2645 72.8904 79.9657 72.9138C79.9037 72.742 79.7899 72.594 79.6404 72.4908C79.4908 72.3877 79.3131 72.3346 79.1325 72.3392L78.9829 72.3424C73.7882 72.4531 68.8042 72.5593 64.6156 69.5449C64.4975 69.463 64.3584 69.4168 64.2148 69.4117C64.0712 69.4066 63.9291 69.4429 63.8055 69.5162C63.6819 69.5896 63.5819 69.6969 63.5176 69.8254C63.4532 69.9539 63.4272 70.0982 63.4425 70.2411C63.6663 72.1049 63.4846 73.6407 62.8975 74.8485C62.8271 75.004 62.7951 75.1707 62.8042 75.3344L62.9975 80.2513C62.9994 80.2843 63.0044 80.3144 63.0125 80.3406L64.7962 87.2021C64.8215 87.2968 64.8165 87.3969 64.7821 87.4886C64.7477 87.5803 64.6856 87.6589 64.6043 87.7136L64.3336 87.8889C64.264 87.9378 64.2134 88.0092 64.1903 88.091C64.1672 88.1729 64.173 88.2602 64.2068 88.3383C64.2405 88.4164 64.3001 88.4804 64.3756 88.5197C64.451 88.559 64.5376 88.5711 64.6209 88.5539C65.3324 88.3808 65.8689 88.4812 66.2302 88.8551C66.5841 89.216 66.6313 89.7041 66.3717 90.3195C66.1173 90.9078 66.1955 91.4143 66.6064 91.8388C68.0187 93.2826 68.6746 97.8733 68.9054 99.6832C68.9447 100.036 68.8922 100.394 68.7529 100.723C68.1746 102.091 67.8751 103.009 67.8544 103.477C67.6697 107.12 67.5862 109.281 67.604 109.961C67.6651 112.021 68.3943 114.928 69.7916 118.683C70.4991 120.6 72.8596 125.827 76.873 134.364C77.0888 134.825 77.1793 135.335 77.1355 135.842C77.0261 136.997 77.1472 138.035 77.4989 138.957C77.6069 139.241 77.648 139.547 77.6188 139.851C77.5892 140.16 77.9069 144.853 78.5719 153.93C78.7391 156.218 79.4334 158.737 80.6546 161.486C80.79 161.789 80.8562 162.117 80.8482 162.447C80.8228 164.271 81.76 167.558 83.6598 172.306C86.0402 178.25 87.5177 181.586 88.0924 182.316C88.1924 182.443 88.2744 182.583 88.3359 182.733L92.2453 192.34C92.468 192.896 92.8028 193.406 93.23 193.838C94.4474 195.079 95.4856 196.877 96.3443 199.233C96.4297 199.461 96.4735 199.699 96.4736 199.937C96.479 200.78 96.5224 201.514 96.5612 202.17C96.635 203.416 96.692 204.381 96.4395 205.267C96.2716 205.851 96.389 206.342 96.7917 206.74C96.9697 206.918 97.0787 207.153 97.0991 207.404L97.5903 213.897C97.6075 214.087 97.6656 214.272 97.7606 214.438C98.3054 215.349 98.5593 216.434 98.5223 217.691C98.5077 218.02 98.5814 218.35 98.736 218.651L99.3113 219.81C99.4368 220.054 99.5031 220.321 99.5049 220.591C99.5045 221.426 99.7722 223.177 100.308 225.844C100.88 228.684 100.646 232.165 99.6065 236.289C99.541 236.546 99.5121 236.814 99.5206 237.085L100.143 250.081C100.149 250.195 100.12 250.309 100.059 250.405C99.998 250.502 99.9083 250.577 99.8024 250.621L99.499 250.748C99.46 250.763 99.4241 250.782 99.392 250.804C98.8835 251.266 98.9777 251.818 99.6744 252.461C99.8517 252.625 99.9636 252.847 99.9895 253.084C100.133 254.231 100.034 255.389 99.6918 256.556C99.6393 256.745 99.6275 256.943 99.6574 257.138C99.6872 257.333 99.7579 257.52 99.8649 257.688L100.182 258.171C100.347 258.418 100.442 258.703 100.458 258.997C100.654 262.145 101.338 265.024 102.511 267.637C102.587 267.809 102.626 267.996 102.627 268.186C102.627 268.375 102.588 268.563 102.512 268.738C102.187 269.497 102.437 270.325 103.261 271.22C103.524 271.498 103.685 271.856 103.719 272.237C103.846 273.692 104.229 274.932 104.867 275.959C105.045 276.254 105.121 276.598 105.082 276.938C104.856 278.88 105.054 280.412 105.678 281.532C106.233 282.523 106.433 283.583 106.275 284.714C106.137 285.71 106.302 287.123 106.771 288.953C107.007 289.892 106.959 290.733 106.91 291.586C106.871 292.267 106.831 292.957 106.936 293.711C106.957 293.87 107.016 294.022 107.109 294.153C107.202 294.284 107.325 294.39 107.468 294.463C107.667 294.559 107.859 294.711 108.045 294.921C108.194 295.087 108.166 295.479 107.96 296.098C107.393 297.799 107.685 299.332 108.836 300.696C109.03 300.925 109.138 301.213 109.142 301.511C109.155 302.111 109.354 302.627 109.739 303.06C109.877 303.209 109.963 303.407 109.983 303.616C110.002 303.826 109.953 304.034 109.845 304.202C109.737 304.37 109.577 304.488 109.393 304.534C109.209 304.58 109.015 304.551 108.845 304.452C108.603 304.312 108.313 304.428 107.973 304.801C107.912 304.869 107.869 304.95 107.848 305.039C107.827 305.128 107.828 305.22 107.851 305.308C107.968 305.736 107.945 306.154 107.78 306.564C106.995 308.531 106.744 310.504 107.028 312.485C107.088 312.857 107.062 313.239 106.95 313.601C106.808 314.056 106.588 315.02 106.289 316.492C105.988 318.001 106.192 319.581 106.392 321.128C106.55 322.353 106.706 323.557 106.605 324.687C106.541 325.459 106.562 326.079 106.668 326.547C106.834 327.252 106.923 327.828 106.934 328.275C107.077 333.488 107.5 337.901 108.201 341.515C108.409 342.574 108.469 343.507 108.532 344.464C108.6 345.512 108.671 346.589 108.937 347.894C109.14 348.904 109.193 350.877 109.096 353.814C109.08 354.127 109.168 354.435 109.345 354.692C109.636 355.129 109.801 355.568 109.838 356.006C110.113 359.503 110.721 362.684 111.661 365.55C111.708 365.692 111.716 365.844 111.683 365.989C111.651 366.134 111.579 366.266 111.476 366.371L111.442 366.405L111.404 366.444L111.381 366.468L111.372 366.477C111.15 366.759 111.045 367.113 111.077 367.465C111.253 369.672 111.573 371.173 112.038 371.969C114.234 375.686 114.892 379.458 114.009 383.287C113.929 383.63 113.901 383.979 113.927 384.323C114.075 386.271 114.087 388.46 113.961 390.891C113.931 391.446 114.011 391.939 114.091 392.432C114.18 392.983 114.269 393.535 114.204 394.173L114.167 394.54L114.105 395.162L114.096 395.248C113.474 401.419 112.848 407.619 114.91 413.714C116.427 418.19 118.272 422.657 120.443 427.117C121.656 429.6 122.175 431.978 122.001 434.252C121.941 435.096 122.112 436.065 122.513 437.158C122.798 437.95 122.815 438.803 122.565 439.719C122.532 439.84 122.516 439.966 122.516 440.092C122.394 446.909 122.838 453.395 123.848 459.548C124.027 460.642 124.423 461.801 124.82 462.962C125.438 464.771 126.059 466.585 125.86 468.17C125.69 469.561 125.783 470.811 126.139 471.92C126.212 472.156 126.266 473.429 126.301 475.737C126.334 478.511 126.982 481.182 127.68 484.06C128.02 485.461 128.372 486.911 128.67 488.445C128.695 488.567 128.689 488.694 128.652 488.815C128.615 488.936 128.549 489.047 128.458 489.138C128.186 489.413 127.687 489.495 126.959 489.381C126.883 489.367 126.805 489.38 126.739 489.419C126.673 489.458 126.624 489.521 126.6 489.595C126.577 489.669 126.58 489.75 126.61 489.823C126.64 489.896 126.694 489.956 126.763 489.993C128.379 490.838 129.193 491.314 129.206 491.42C129.295 492.069 129.039 492.501 128.437 492.715C127.966 492.888 127.569 492.9 127.247 492.751C127.207 492.73 127.161 492.723 127.117 492.732C127.073 492.741 127.033 492.764 127.004 492.798C126.974 492.832 126.957 492.875 126.955 492.92C126.953 492.964 126.966 493.009 126.993 493.045C127.349 493.56 127.876 493.744 128.576 493.598C128.779 493.558 128.99 493.599 129.163 493.714C129.336 493.828 129.458 494.005 129.501 494.208C130.079 496.8 130.221 498.625 129.926 499.683C129.897 499.784 129.893 499.89 129.912 499.993C129.932 500.096 129.975 500.194 130.039 500.277C130.14 500.419 130.326 500.515 130.596 500.567C130.681 500.585 130.762 500.621 130.832 500.673C130.902 500.725 130.96 500.792 131.001 500.869C131.043 500.946 131.067 501.031 131.072 501.118C131.077 501.205 131.063 501.293 131.031 501.374C130.979 501.517 130.843 501.705 130.622 501.937C130.504 502.06 130.416 502.207 130.364 502.368C130.312 502.529 130.298 502.699 130.323 502.865L131.13 508.019C131.19 508.377 131.34 508.713 131.565 508.996C132.341 509.974 132.87 510.97 133.154 511.982C133.298 512.487 133.609 512.928 134.034 513.235C136.676 515.118 138.354 516.35 139.067 516.932C141.866 519.233 144.68 520.97 147.51 522.141C147.792 522.263 148.105 522.315 148.419 522.291C153.797 521.858 158.345 521.756 162.063 521.983C164.964 522.163 167.303 521.937 169.786 521.697C171.451 521.536 173.18 521.369 175.186 521.313C175.202 521.312 175.217 521.306 175.231 521.297C175.244 521.287 175.256 521.274 175.263 521.259L175.457 520.948C175.476 520.915 175.503 520.888 175.535 520.867C175.567 520.846 175.603 520.833 175.64 520.827L180.806 520.25C180.91 520.237 181.015 520.252 181.109 520.293C181.629 520.524 182.505 520.546 183.736 520.357C184.71 520.21 185.731 520.5 186.8 521.228C187.058 521.404 187.362 521.505 187.677 521.52C189.425 521.617 190.962 521.581 192.288 521.414C194.543 521.135 196.084 520.996 196.912 520.997C202.875 520.992 206.749 520.91 208.537 520.751C209.586 520.653 210.343 520.454 210.807 520.154C211.774 519.533 213.117 518.777 214.837 517.887C215.447 517.566 215.948 516.974 216.341 516.111C217.171 514.282 218.154 513.586 220.007 514.324C222.131 515.161 223.357 515.66 223.686 515.822C223.833 515.898 223.953 516.022 224.026 516.174C224.065 516.272 224.088 516.324 224.095 516.33C224.13 516.38 224.181 516.419 224.242 516.442L233.656 520.035C234.033 520.179 234.436 520.242 234.838 520.22L242.526 519.793C242.724 519.782 242.918 519.733 243.099 519.651C244.269 519.085 245.669 518.8 247.298 518.796C247.838 518.793 250.536 518.499 255.391 517.915C255.552 517.897 255.715 517.921 255.862 517.985C256.01 518.049 256.138 518.15 256.233 518.279C256.493 518.639 256.788 518.769 257.116 518.671C258.608 518.241 260.381 518.309 262.436 518.876C262.78 518.974 263.149 518.968 263.496 518.857C264.284 518.613 264.978 518.604 265.578 518.831C265.674 518.867 265.777 518.88 265.879 518.87C265.981 518.86 266.079 518.826 266.166 518.772C266.253 518.718 266.326 518.644 266.38 518.558C266.434 518.471 266.468 518.372 266.478 518.27C266.489 518.165 266.499 518.075 266.506 518.001L266.507 517.988L266.517 517.899L266.524 517.827C266.551 517.605 266.881 517.403 267.512 517.221C268.123 517.041 268.5 516.806 268.644 516.518C268.722 516.361 268.767 516.192 268.777 516.019C268.804 515.063 269.147 513.852 269.807 512.387C269.918 512.145 269.962 511.879 269.934 511.618C269.542 508.175 269.77 504.947 270.618 501.935C270.619 501.933 270.625 501.919 270.626 501.916C270.626 501.913 270.626 501.909 270.626 501.905L271.054 493.208C271.061 493.053 271.1 492.9 271.17 492.758C271.24 492.616 271.338 492.489 271.459 492.384C271.714 492.163 271.842 491.959 271.845 491.772C271.841 488.934 271.371 486.306 270.436 483.888C270.281 483.481 270.222 483.042 270.264 482.605C270.555 479.438 270.151 475.828 269.051 471.776C268.985 471.542 268.871 471.323 268.715 471.134C265.564 467.423 264.125 463.27 264.396 458.674C264.467 457.542 264.446 456.808 264.334 456.474C264.067 455.655 264.123 454.981 264.179 454.288C264.246 453.476 264.315 452.639 263.868 451.512C263.799 451.337 263.767 451.149 263.776 450.96C263.784 450.771 263.833 450.587 263.917 450.418L264.702 448.862C264.759 448.748 264.793 448.623 264.801 448.496C264.81 448.368 264.793 448.24 264.751 448.118C264.695 447.948 264.659 447.84 264.643 447.794C264.503 447.375 264.521 446.922 264.692 446.519C266.771 441.756 267.531 437.057 266.973 432.421C266.481 428.382 266.251 426.161 266.282 425.759C266.31 425.434 266.265 425.105 266.148 424.795C265.029 421.719 264.432 418.664 264.357 415.63C264.345 415.132 264.505 414.648 264.805 414.277C265.106 413.906 265.525 413.674 265.978 413.627C266.363 413.585 266.748 413.728 267.134 414.053C269.248 415.819 270.741 417.689 271.612 419.663C271.777 420.035 272.033 420.359 272.355 420.604C273.632 421.588 274.554 422.808 275.123 424.266C275.284 424.678 275.538 425.048 275.864 425.346C284.571 433.522 291.14 439.744 295.571 444.011C297.849 446.208 301.156 450.504 305.491 456.9C305.651 457.137 305.845 457.349 306.067 457.529L312.458 462.772C312.471 462.782 312.484 462.792 312.497 462.801C312.533 462.827 312.572 462.849 312.612 462.868C312.629 462.876 312.647 462.884 312.665 462.891C314.295 463.388 315.878 464.602 317.415 466.533C319.496 469.148 321.086 471.323 322.184 473.058C322.417 473.436 322.721 473.769 323.08 474.04C324.182 474.887 324.828 475.756 325.018 476.646C325.038 476.743 325.086 476.832 325.158 476.903C325.229 476.974 325.321 477.023 325.42 477.045C325.504 477.06 325.571 477.072 325.62 477.081C325.685 477.092 325.72 477.098 325.724 477.098C325.769 477.073 325.823 477.066 325.873 477.078C325.924 477.09 325.968 477.12 325.998 477.163L330.006 482.609C330.064 482.691 330.143 482.759 330.238 482.806L335.473 485.46C335.538 485.493 335.592 485.545 335.625 485.61C335.659 485.675 335.672 485.749 335.661 485.821C335.656 485.86 335.644 485.898 335.626 485.933C335.611 485.962 335.591 485.989 335.568 486.014C335.517 486.067 335.451 486.102 335.379 486.116C334.672 486.249 334.378 486.659 334.496 487.347C334.511 487.446 334.547 487.542 334.602 487.627C334.657 487.712 334.729 487.784 334.814 487.84C335.342 488.204 335.623 488.693 335.657 489.305C335.666 489.476 335.72 489.642 335.814 489.787C337.608 492.505 339.858 494.971 342.565 497.184C343.663 498.084 345.364 498.941 347.666 499.755C350.267 500.678 352.35 501.808 353.913 503.143C354.509 503.657 355.011 504.461 355.419 505.553C355.482 505.727 355.587 505.883 355.725 506.007L363.686 513.547C363.78 513.637 363.848 513.752 363.879 513.878C363.911 514.004 363.906 514.135 363.866 514.258C363.706 514.741 364.038 515.306 364.861 515.955C365.033 516.084 365.237 516.169 365.456 516.202C367.778 516.527 370.277 517.23 372.955 518.309C374.116 518.786 375.951 518.937 378.458 518.765C378.776 518.747 379.096 518.783 379.406 518.872C380.206 519.101 381 519.321 381.786 519.531C382.349 519.687 382.686 519.498 382.796 518.964C382.8 518.946 382.804 518.929 382.81 518.912C382.815 518.897 382.821 518.882 382.827 518.868C382.831 518.859 382.835 518.851 382.839 518.843C382.853 518.816 382.869 518.79 382.888 518.766C382.933 518.708 382.992 518.661 383.058 518.629C383.837 518.238 384.659 518.069 385.524 518.121C385.759 518.135 385.99 518.072 386.185 517.944L389.026 516.084C389.505 515.776 390.064 515.616 390.633 515.624C392.137 515.654 393.494 515.451 394.705 515.017C394.809 514.978 394.921 514.961 395.033 514.969L399.171 515.179C399.182 515.18 399.193 515.18 399.205 515.179L399.217 515.179C399.288 515.176 399.357 515.16 399.422 515.132C399.461 515.115 399.499 515.094 399.533 515.069C399.568 515.044 399.6 515.015 399.628 514.983C399.685 514.918 399.726 514.842 399.75 514.759C399.774 514.677 399.779 514.59 399.765 514.505C399.732 514.16 400.222 513.906 401.235 513.742C401.446 513.705 401.666 513.75 401.853 513.868C402.448 514.256 402.922 514.433 403.274 514.4C407.26 514.038 410.449 513.921 412.84 514.049C413.176 514.069 413.51 514.009 413.811 513.874C415.937 512.962 418.513 512.398 421.539 512.183C421.828 512.16 422.115 512.206 422.378 512.316C423.437 512.738 424.499 512.572 425.565 511.819C425.703 511.719 425.858 511.648 426.023 511.61C426.188 511.571 426.358 511.566 426.524 511.595C426.74 511.637 427.771 511.496 429.616 511.173C430.423 511.034 431.452 510.994 432.704 511.051C436.105 511.209 440.099 510.463 444.688 508.812C447.843 507.676 451.914 507.152 456.9 507.242C457.093 507.245 457.286 507.274 457.475 507.33C459.208 507.862 461.389 507.941 464.019 507.567C465.516 507.357 467.959 507.282 471.347 507.34C473.733 507.381 475.347 507.462 476.188 507.582C478.417 507.912 480.057 507.988 481.109 507.809C481.214 507.791 481.321 507.796 481.424 507.825C481.526 507.854 481.62 507.906 481.699 507.976C482.225 508.441 482.82 508.578 483.484 508.388C485.081 507.925 486.754 507.746 488.502 507.849C489.367 507.897 490.16 507.713 490.943 507.531C491.707 507.354 492.461 507.179 493.265 507.223C494.504 507.283 495.574 506.958 496.658 506.629C497.939 506.24 499.24 505.845 500.862 506.07C501.422 506.148 501.992 506.02 502.465 505.71L506.07 503.356C506.213 503.262 506.325 503.127 506.393 502.969C506.461 502.81 506.481 502.635 506.451 502.464C505.952 499.614 504.8 497.024 502.994 494.694C502.804 494.45 502.693 494.152 502.676 493.84C502.645 493.401 502.596 493.113 502.528 492.977C500.306 488.554 498.881 485.685 498.254 484.371C498.11 484.066 497.93 483.78 497.716 483.52C497.365 483.092 497.038 482.69 496.729 482.309L496.664 482.229Z" fill="white"/>
</svg>
