<svg width="569" height="569" viewBox="0 0 569 569" fill="none" xmlns="http://www.w3.org/2000/svg">
<path d="M98.5663 223.725C98.2985 223.407 98.1939 222.449 98.2525 220.852C98.2691 220.412 98.2053 219.97 98.0642 219.547C97.2106 216.912 97.0893 214.679 97.7002 212.847C97.7415 212.715 97.7446 212.575 97.709 212.441C97.6735 212.308 97.6007 212.188 97.4993 212.094C96.9721 211.617 96.6039 210.982 96.3947 210.187C96.3669 210.088 96.3192 209.996 96.2544 209.916C96.1897 209.836 96.1092 209.77 96.0181 209.723C95.2733 209.33 94.9845 208.761 95.1519 208.016C95.6959 205.582 95.4574 203.567 94.4364 201.969C94.3288 201.795 94.2603 201.594 94.2356 201.379L93.859 197.578C93.8426 197.455 93.8646 197.332 93.9218 197.226C94.7754 195.42 94.8172 193.571 94.0473 191.681C93.9326 191.402 93.8979 191.094 93.9469 190.79C94.0807 189.761 94.3527 185.997 94.7628 179.498C94.8214 178.553 94.9762 177.763 95.2272 177.127C95.6875 175.964 95.3904 175.295 94.336 175.119C94.252 175.107 94.1733 175.07 94.109 175.015C94.0447 174.959 93.9973 174.887 93.9724 174.805C93.9475 174.724 93.946 174.637 93.9682 174.555C93.9903 174.473 94.0351 174.399 94.0975 174.342C94.767 173.714 95.4155 173.325 96.0432 173.175C96.2513 173.128 96.4467 173.036 96.6158 172.906C96.7849 172.776 96.9236 172.611 97.0223 172.422C97.6249 171.255 96.5077 170.201 96.7085 168.758C96.8424 167.788 96.6541 167.131 96.1436 166.789C95.9713 166.673 95.8414 166.505 95.7734 166.31C95.7054 166.115 95.7032 165.904 95.767 165.71C96.2357 164.246 96.1018 162.502 95.3653 160.478C95.2183 160.078 95.2007 159.643 95.3151 159.236C96.0808 156.413 93.6205 153.477 92.5284 150.729C92.3638 150.302 92.0822 149.921 91.7124 149.625C91.361 149.34 91.0136 149.169 90.6705 149.11C90.5652 149.09 90.4659 149.046 90.3802 148.981C90.2946 148.917 90.2248 148.834 90.1763 148.738C90.1279 148.642 90.1019 148.537 90.1006 148.43C90.0992 148.322 90.1224 148.216 90.1684 148.119C91.0722 146.246 90.93 144.017 89.7416 141.432C89.6838 141.309 89.6579 141.171 89.6663 141.03L90.0178 137.116C90.034 136.952 90.008 136.787 89.9425 136.639C89.365 135.385 89.068 133.189 89.0512 130.052C89.0429 127.668 88.3273 125.142 86.9046 122.474C86.4444 121.613 86.1431 118.894 86.0008 114.319C85.9933 114.087 86.0367 113.857 86.1278 113.644C86.2189 113.432 86.3556 113.242 86.5281 113.089C90.9969 109.133 93.7628 106.962 94.8256 106.578C102.119 103.981 106.349 101.521 116.894 96.0637C121.806 93.5209 128.036 91.5511 135.585 90.1542C135.862 90.0972 136.117 89.9524 136.313 89.7402C136.773 89.2133 137.317 88.9749 137.945 89.025C144.405 89.5436 149.732 89.5395 153.925 89.0125C154.058 88.9958 154.197 88.9958 154.339 89.0125L166.013 90.0539C166.403 90.087 166.778 90.1936 167.118 90.3675L169.089 91.3963C169.237 91.4705 169.405 91.5092 169.578 91.5093L206.459 91.8606C206.666 91.8605 206.866 91.8222 207.049 91.7476C209.802 90.5934 212.928 90.171 216.426 90.4804C219.551 90.7565 222.175 90.2421 225.363 90.9949C226.987 91.3713 228.727 91.3545 230.585 90.9447C230.774 90.8987 230.973 90.9009 231.163 90.9513C231.354 91.0016 231.53 91.0985 231.677 91.2332C231.694 91.25 231.707 91.2625 231.715 91.2709C231.761 91.3697 231.833 91.4536 231.921 91.5134C232.01 91.5733 232.112 91.6066 232.217 91.6096L250.005 92.2746C250.219 92.2829 250.426 92.3433 250.607 92.4503L250.934 92.6385C251.068 92.7137 251.217 92.7604 251.37 92.7755C251.523 92.7906 251.678 92.7739 251.825 92.7263C254.068 91.9735 256.557 91.6933 259.294 91.8857C259.832 91.9186 260.371 91.8374 260.876 91.6473L261.666 91.3587C262.019 91.2275 262.401 91.1971 262.771 91.2709C263.763 91.4716 268.545 92.0864 270.278 91.1831C271.039 90.7899 271.734 90.9279 272.361 91.5971C272.49 91.7332 272.663 91.8193 272.849 91.84C273.035 91.8607 273.223 91.8146 273.378 91.71C273.981 91.2918 274.83 90.9865 275.926 90.7941C276.283 90.7279 276.65 90.7365 277.006 90.8192C280.362 91.6222 283.714 91.7811 287.061 91.296C287.524 91.2298 287.995 91.2597 288.442 91.3838C297.388 93.7844 302.589 94.9428 304.045 94.8592C306.74 94.6919 312.142 94.4284 320.251 94.0688C320.885 94.0437 321.516 93.9469 322.134 93.7802C327.13 92.4377 334.373 93.2909 340.812 93.9809C341.672 94.0727 342.539 94.0642 343.398 93.9558C345.29 93.73 347.369 93.6422 349.637 93.6924C351.236 93.7342 352.315 93.362 352.876 92.5757C353.729 91.3545 354.663 91.1747 355.675 92.0362C355.728 92.0824 355.772 92.1386 355.802 92.2016C355.833 92.2645 355.851 92.3328 355.855 92.4022C355.858 92.4715 355.847 92.5405 355.823 92.6049C355.799 92.6693 355.761 92.7277 355.713 92.7765C355.629 92.8601 355.591 92.9479 355.6 93.04C355.601 93.0828 355.612 93.1249 355.629 93.1639C355.647 93.2028 355.673 93.2379 355.704 93.267C355.736 93.2961 355.773 93.3188 355.813 93.3337C355.853 93.3485 355.896 93.3553 355.939 93.3536C360.157 93.3202 367.274 93.3745 377.291 93.5167C378.136 93.5251 379.475 93.4582 381.308 93.316C384.572 93.0483 387.706 93.9893 390.71 96.1389C391.071 96.4041 391.522 96.5167 391.966 96.4526C393.572 96.2184 395.221 96.7914 396.911 98.1715C400.761 101.333 403.539 103.391 405.247 104.344C411.485 107.845 415.904 112.738 422.381 116.163C422.903 116.438 423.518 116.528 424.14 116.42C424.763 116.313 425.363 116.012 425.858 115.561C426.017 115.419 426.135 115.344 426.21 115.335C426.304 115.32 426.399 115.329 426.488 115.361C426.578 115.393 426.657 115.448 426.719 115.52C426.78 115.592 426.823 115.678 426.841 115.771C426.86 115.864 426.854 115.96 426.825 116.05L426.599 116.678C426.546 116.819 426.544 116.975 426.595 117.117C426.645 117.259 426.745 117.379 426.875 117.456L439.905 124.971C440.152 125.111 440.359 125.305 440.508 125.535L443.458 130.19C443.673 130.529 443.814 130.905 443.872 131.294L444.964 138.408C444.976 138.484 444.973 138.559 444.955 138.631C444.938 138.702 444.907 138.767 444.864 138.822C444.688 139.065 444.516 139.554 444.349 140.29C444.249 140.759 444.32 141.206 444.562 141.633C445.253 142.8 444.663 145.459 444.675 147.454C444.709 151.586 444.55 154.033 444.198 154.794C443.479 156.35 442.931 158.064 442.554 159.938C442.456 160.46 442.526 161 442.755 161.481C442.755 161.498 442.801 161.578 442.893 161.72C443.033 161.934 443.106 162.186 443.102 162.443C443.097 162.7 443.016 162.951 442.868 163.163C442.533 163.623 442.32 164.07 442.228 164.505C442.205 164.599 442.204 164.697 442.225 164.791C442.246 164.886 442.288 164.975 442.348 165.051C442.408 165.128 442.485 165.191 442.573 165.235C442.66 165.28 442.757 165.305 442.855 165.308C442.897 165.308 442.968 165.295 443.069 165.27C443.125 165.259 443.182 165.261 443.238 165.274C443.293 165.288 443.345 165.314 443.389 165.35C443.433 165.386 443.469 165.431 443.494 165.482C443.519 165.534 443.532 165.59 443.533 165.647C443.541 166.124 443.349 166.538 442.956 166.889C441.725 167.968 441.512 170.728 441.776 171.77C441.779 171.774 441.783 171.779 441.785 171.785C441.787 171.792 441.788 171.799 441.788 171.807L439.704 195.068C439.679 195.385 439.701 195.706 439.767 196.022L443.32 211.893C443.369 212.092 443.378 212.301 443.345 212.508C443.119 213.872 443.361 215.176 444.073 216.423C444.295 216.809 444.411 217.25 444.412 217.702V232.206C444.412 232.63 444.344 233.058 444.211 233.473C442.629 238.475 441.796 244.485 441.713 251.503C441.646 257.065 442.307 260.883 443.696 262.958C443.993 263.403 444.183 263.906 444.249 264.426L445.793 276.32C445.801 276.344 445.805 276.366 445.805 276.383C447.035 280.59 448.868 284.492 451.303 288.088C451.585 288.502 451.781 288.972 451.881 289.469C452.726 293.458 452.856 297.143 452.27 300.522C452.102 301.492 452.253 302.567 452.722 303.747C453.065 304.583 452.851 305.445 452.082 306.331C451.897 306.543 451.763 306.792 451.687 307.061C451.611 307.33 451.595 307.612 451.642 307.887C451.801 308.84 451.525 310.183 450.814 311.914C450.381 312.986 450.123 314.126 450.048 315.289C449.722 320.542 449.383 323.7 449.031 324.762C448.37 326.703 448.182 328.07 448.466 328.865C448.555 329.115 448.546 329.388 448.441 329.63L447.362 332.026C447.275 332.227 447.244 332.447 447.273 332.664C447.301 332.88 447.389 333.085 447.525 333.256C447.96 333.791 447.939 334.276 447.462 334.711C447.309 334.856 447.219 335.054 447.211 335.263L446.784 342.929C446.776 343.129 446.733 343.324 446.659 343.507C446.039 344.995 445.625 347.622 445.416 351.386C444.956 359.558 445.42 367.182 446.809 374.258C447.37 377.119 448.311 379.662 449.634 381.886C449.715 382.021 449.823 382.139 449.95 382.229C450.077 382.319 450.219 382.38 450.364 382.405C450.509 382.431 450.653 382.422 450.783 382.377C450.914 382.333 451.028 382.255 451.115 382.15C451.174 382.075 451.546 382.004 452.232 381.937C452.294 381.931 452.356 381.945 452.41 381.976C452.464 382.007 452.506 382.054 452.533 382.11C452.559 382.166 452.567 382.229 452.556 382.29C452.545 382.351 452.515 382.407 452.471 382.451C451.885 383.028 451.705 383.777 451.931 384.697C453.161 389.649 453.73 394.153 453.638 398.209C453.58 400.585 453.785 402.233 454.253 403.153C454.385 403.425 454.454 403.726 454.454 404.031C454.429 407.636 454.09 410.677 453.437 413.152C453.337 413.552 453.287 413.961 453.287 414.369C453.253 420.475 453.362 426.795 453.613 433.327C453.705 435.736 454.061 438.379 454.68 441.257C456.412 449.312 457.052 455.096 458.91 466.224C459.161 467.722 459.492 470.875 459.902 475.684C459.927 476.006 460.026 476.32 460.191 476.6L460.818 477.692C460.92 477.868 460.981 478.067 460.996 478.273C461.011 478.479 460.981 478.688 460.906 478.884C460.069 481.033 459.76 482.798 459.977 484.178C460.043 484.562 459.986 484.961 459.814 485.32C457.504 490.05 451.542 494.78 447.55 497.239C447.266 497.415 447.001 497.621 446.759 497.854L442.755 501.731C442.596 501.881 442.453 502.049 442.328 502.233C440.018 505.503 437.78 508.397 435.612 510.915C432.763 514.24 432.361 517.853 427.026 519.183C426.985 519.2 426.942 519.208 426.9 519.208L420.31 519.284C420.128 519.287 419.949 519.328 419.785 519.404C419.621 519.48 419.475 519.588 419.356 519.723C418.661 520.517 417.678 520.363 416.406 519.259C416.25 519.122 416.051 519.043 415.844 519.033C415.636 519.024 415.432 519.086 415.264 519.208C414.544 519.719 413.594 520.011 412.414 520.087C412.051 520.103 411.69 520.039 411.36 519.898C405.452 517.389 400.046 515.34 395.142 513.751C392.137 512.78 389.652 512.375 387.685 512.534C387.245 512.574 386.804 512.468 386.43 512.232C383.932 510.677 381.911 513.173 379.664 513.362C378.71 513.445 375.81 513.763 370.965 514.315C370.546 514.364 370.151 514.525 369.822 514.779C368.785 515.574 367.818 515.963 366.923 515.946C366.648 515.946 366.38 516.049 366.169 516.235C365.224 517.121 364.278 517.067 363.332 516.072C363.193 515.924 363.021 515.812 362.831 515.744C362.641 515.677 362.438 515.656 362.24 515.683C358.784 516.151 355.173 516.034 351.407 515.331C349.733 515.022 346.076 515.386 340.436 516.423C340.095 516.489 339.744 516.506 339.394 516.473C337.921 516.356 336.863 516.469 336.218 516.812C335.465 517.213 334.436 517.31 333.13 517.101C329.205 516.473 325.117 516.963 320.866 518.568C319.853 518.945 318.962 518.895 318.192 518.418C317.995 518.295 317.769 518.23 317.539 518.23L307.309 518.493C307.04 518.501 306.774 518.417 306.556 518.255C305.359 517.41 303.769 517.213 301.785 517.665C301.578 517.715 301.361 517.728 301.145 517.703C299.463 517.494 296.848 517.322 293.3 517.188C292.831 517.172 292.459 517.038 292.182 516.787C291.764 516.402 291.408 516.226 291.116 516.26C289.735 516.419 288.174 516.298 286.433 515.896C286.207 515.844 285.971 515.855 285.751 515.928C285.532 516.001 285.338 516.133 285.191 516.31C283.843 517.966 282.626 518.886 281.538 519.07C278.751 519.535 274.872 521.542 272.161 522.169C267.759 523.19 263.298 523.779 258.779 523.938C257.959 523.963 256.9 524.143 255.603 524.478C255.206 524.577 254.791 524.594 254.386 524.528C252.193 524.177 249.159 524.005 245.285 524.014C234.104 524.014 226.886 524.106 223.631 524.29C218.886 524.541 213.902 523.286 209.81 523.487C209.149 523.52 208.078 523.813 206.597 524.365C206.214 524.515 205.807 524.599 205.392 524.616C204.705 524.641 200.939 524.645 194.094 524.628C192.638 524.628 191.416 524.72 190.429 524.904C188.257 525.331 186.236 524.164 183.688 524.616C180.658 525.16 176.892 524.942 172.39 523.963C172.24 523.93 172.097 523.88 171.963 523.813L165.423 520.199C165.226 520.084 165.005 520.024 164.783 520.024C159.737 519.94 155.795 519.986 152.958 520.162C147.874 520.463 144.686 519.76 138.208 519.008C137.816 518.958 137.433 518.865 137.066 518.732C134.844 517.891 130.338 516.272 128.379 513.826C128.255 513.66 128.097 513.515 127.915 513.399L123.936 510.928C123.581 510.705 123.185 510.572 122.781 510.539C121.618 510.447 120.647 509.932 119.869 508.995C119.686 508.772 119.464 508.588 119.216 508.456C117.299 507.402 114.898 506.704 112.01 506.361C109.876 506.11 107.943 503.977 107.542 501.48C107.207 499.448 105.868 498.147 103.525 497.578C103.45 497.553 103.378 497.51 103.311 497.453L94.8758 489.674C94.8181 489.616 94.7789 489.546 94.7628 489.473C94.495 488.143 94.1059 486.922 93.5954 485.809C92.7418 483.953 92.8924 482.61 92.9552 481.029C92.963 480.796 92.9224 480.562 92.8361 480.344C92.7497 480.126 92.6193 479.928 92.4531 479.762L92.0388 479.348C91.7728 479.081 91.6199 478.726 91.612 478.357L91.3107 467.604C91.3108 467.571 91.3065 467.541 91.2982 467.517C90.4864 465.074 90.4739 462.807 91.2605 460.716C91.3763 460.402 91.4235 460.073 91.3986 459.75C91.0053 455.51 91.9551 449.5 94.2481 441.721C94.8925 439.529 94.2983 437.258 92.4656 434.908C92.3909 434.808 92.3314 434.689 92.2899 434.557C92.156 434.047 92.3024 433.628 92.7292 433.302C93.1142 433.018 93.2815 432.725 93.2313 432.424C93.1727 432.081 92.997 431.813 92.7041 431.621C92.4922 431.479 92.3394 431.265 92.2746 431.02C92.2098 430.775 92.2376 430.515 92.3526 430.291C92.5786 429.839 92.7041 429.283 92.7292 428.622C92.7456 428.243 92.6681 427.864 92.5033 427.518C91.4823 425.435 91.2061 423.294 91.6748 421.094C92.0388 419.376 90.7082 417.782 91.2731 415.737C91.6078 414.524 91.1392 413.5 89.8672 412.663C89.7973 412.618 89.7372 412.558 89.6904 412.489C89.6437 412.42 89.6112 412.343 89.5948 412.261C89.5785 412.179 89.5786 412.095 89.5952 412.013C89.6117 411.931 89.6444 411.854 89.6914 411.785C91.5116 409.075 91.0973 406.578 92.1769 404.169C93.2648 401.735 94.7921 398.222 96.7587 393.63C98.2985 390.05 99.4366 387.758 100.173 386.754C101.236 385.324 101.579 383.497 101.202 381.272C100.926 379.632 101.24 377.131 102.144 373.769C102.252 373.353 102.294 372.926 102.269 372.502C102.202 371.088 102.353 369.917 102.721 368.989C103.713 366.517 103.161 363.167 104.215 361.235C104.6 360.532 104.625 359.721 104.29 358.801C104.098 358.249 104.219 357.722 104.654 357.22C105.023 356.793 105.186 356.258 105.144 355.614C104.993 352.954 104.868 351.26 104.767 350.533C104.722 350.242 104.597 349.971 104.406 349.749C104.215 349.527 103.967 349.364 103.688 349.278C102.834 349.019 101.763 348.956 100.474 349.09C99.8137 349.154 99.1561 348.992 98.6262 348.634C98.0964 348.275 97.7311 347.746 97.5998 347.145C97.3905 346.208 96.8968 345.547 96.1185 345.163C96.0192 345.113 95.9346 345.038 95.873 344.946C95.8113 344.853 95.7748 344.747 95.767 344.636L95.2272 335.979C95.2272 335.954 95.2315 335.928 95.2398 335.903C95.6666 334.406 95.6624 332.938 95.2272 331.5C95.1059 331.102 95.1281 330.676 95.29 330.295L96.8591 326.807C96.9063 326.697 96.9252 326.577 96.914 326.459C96.9029 326.34 96.8621 326.226 96.7955 326.128C96.7289 326.03 96.6386 325.951 96.5334 325.899C96.4281 325.846 96.3112 325.822 96.1938 325.828L95.4532 325.866C95.3632 325.871 95.2731 325.858 95.1882 325.827C95.1032 325.796 95.0251 325.748 94.9585 325.686C94.8919 325.624 94.838 325.55 94.8001 325.466C94.7622 325.383 94.741 325.293 94.7377 325.201C94.7126 324.699 95.0013 324.411 95.6038 324.335C95.8129 324.308 96.0048 324.207 96.1435 324.053C96.2821 323.898 96.358 323.7 96.357 323.495V319.091C96.3569 318.666 96.2257 318.246 95.9804 317.887C95.177 316.707 94.9009 315.235 95.1519 313.47C95.2691 312.676 94.9385 312.144 94.1602 311.877C94.0791 311.848 94.0065 311.8 93.949 311.736C93.8914 311.672 93.8508 311.595 93.8308 311.511C93.8108 311.427 93.8121 311.34 93.8346 311.257C93.8571 311.174 93.9 311.098 93.9594 311.036C94.5201 310.451 94.541 309.61 94.0222 308.514C93.9548 308.371 93.9167 308.215 93.9103 308.056C93.9038 307.896 93.929 307.737 93.9845 307.586L95.2775 304.286C95.3106 304.195 95.3276 304.097 95.3277 303.997L95.4155 296.545C95.4155 296.423 95.3707 296.307 95.29 296.219C94.9385 295.842 94.746 295.244 94.7126 294.424C94.6963 294.149 94.7761 293.874 94.9385 293.647C95.5913 292.701 95.88 291.371 95.8047 289.657C95.7461 288.427 95.3109 287.854 94.4992 287.938C94.4299 287.944 94.3599 287.932 94.297 287.902C94.2342 287.872 94.1809 287.826 94.1431 287.768C94.1054 287.711 94.0846 287.645 94.0832 287.577C94.0818 287.51 94.0998 287.444 94.1351 287.386C94.1937 287.286 94.4615 287.223 94.9385 287.198C95.0995 287.191 95.2514 287.122 95.3617 287.004C95.4721 286.887 95.532 286.731 95.5285 286.57C95.516 285.968 94.6624 285.441 94.8004 284.475C95.0431 282.668 95.1728 281.037 95.1896 279.582C95.1979 278.841 95.3077 278.098 95.516 277.374C96.7713 273.041 97.0181 268.984 96.2566 265.204C96.0913 264.427 96.1041 263.621 96.2942 262.845C96.8968 260.411 96.8466 257.462 96.1436 254C96.0526 253.561 96.0569 253.108 96.1562 252.67C96.8173 249.683 97.0642 246.898 96.8968 244.314C96.47 237.965 96.5202 229.208 96.7336 226.272C96.7838 225.628 97.3403 225.03 98.4031 224.478C98.4693 224.443 98.5273 224.394 98.5726 224.335C98.6179 224.276 98.6496 224.208 98.6652 224.135C98.6809 224.063 98.6801 223.989 98.663 223.918C98.6459 223.847 98.6128 223.781 98.5663 223.725ZM323.477 358.475C323.452 356.526 323.414 355.426 323.364 355.175C323.171 354.071 322.318 353.36 320.803 353.042C320.764 353.03 320.728 353.007 320.703 352.975C320.677 352.943 320.662 352.904 320.659 352.863C320.656 352.821 320.666 352.78 320.687 352.745C320.709 352.71 320.74 352.682 320.778 352.666C323.803 351.511 323.301 347.195 323.565 344.56C323.597 344.275 323.536 343.981 323.389 343.72C323.381 343.703 323.314 343.594 323.188 343.394C323.016 343.115 322.925 342.789 322.925 342.453L322.837 334.762C322.828 334.663 322.846 334.563 322.887 334.473C323.397 333.335 323.389 332.169 322.862 330.973C322.83 330.895 322.781 330.825 322.719 330.768C322.657 330.712 322.583 330.669 322.502 330.642C322.421 330.616 322.335 330.608 322.25 330.617C322.165 330.626 322.082 330.653 322.008 330.697L321.732 330.86C321.653 330.907 321.595 330.983 321.572 331.072C321.548 331.162 321.561 331.256 321.607 331.336L322.234 332.428C322.291 332.528 322.322 332.64 322.325 332.755C322.328 332.869 322.302 332.983 322.249 333.085C322.197 333.187 322.12 333.275 322.025 333.34C321.931 333.405 321.821 333.445 321.707 333.457L320.213 333.607C320.131 333.616 320.05 333.6 319.978 333.559C319.907 333.519 319.85 333.458 319.814 333.383C319.779 333.308 319.767 333.223 319.78 333.14C319.793 333.057 319.83 332.979 319.887 332.917C321 331.771 321.058 330.521 320.063 329.166C319.9 328.943 319.785 328.656 319.736 328.354C319.688 328.052 319.71 327.754 319.797 327.512C319.885 327.27 320.033 327.098 320.217 327.027C320.401 326.956 320.608 326.989 320.803 327.121C320.929 327.204 321.1 327.163 321.318 326.995C321.384 326.945 321.438 326.88 321.475 326.805C321.512 326.731 321.532 326.649 321.534 326.565C321.535 326.482 321.517 326.4 321.482 326.324C321.447 326.249 321.395 326.182 321.33 326.13C321.297 326.096 321.268 326.067 321.243 326.042C321.04 325.844 320.888 325.601 320.799 325.332C320.709 325.064 320.685 324.778 320.728 324.499C320.954 323.06 320.468 321.91 319.272 321.048C319.086 320.912 318.952 320.717 318.891 320.494C318.83 320.272 318.844 320.034 318.933 319.819C319.711 317.995 319.707 315.8 318.92 313.232C318.823 312.917 318.817 312.581 318.904 312.263C318.99 311.946 319.166 311.659 319.41 311.438C320.071 310.827 320.042 310.049 319.322 309.104C319.159 308.894 319.081 308.631 319.102 308.367C319.123 308.102 319.241 307.855 319.435 307.674C319.468 307.64 319.506 307.603 319.548 307.561C319.838 307.251 320.04 306.871 320.135 306.459C320.23 306.047 320.214 305.617 320.088 305.214C319.653 303.859 319.669 302.655 320.138 301.601C320.241 301.363 320.267 301.098 320.213 300.844C320.159 300.59 320.027 300.359 319.837 300.183C319.343 299.732 318.849 298.862 318.355 297.574C318.293 297.408 318.273 297.23 318.298 297.054C318.322 296.879 318.389 296.713 318.493 296.57C319.029 295.859 319.021 295.232 318.468 294.688C318.267 294.487 318.1 294.37 317.966 294.337C317.548 294.236 317.309 294.161 317.251 294.111C317.13 294.012 317.038 293.882 316.985 293.734C316.932 293.586 316.92 293.426 316.949 293.27C317.209 291.999 316.97 291.137 316.234 290.686C316.05 290.573 315.902 290.412 315.809 290.22C315.715 290.029 315.68 289.816 315.707 289.607C315.841 288.62 315.548 286.637 314.828 283.66C314.585 282.664 314.69 281.857 315.142 281.238C315.296 281.027 315.376 280.775 315.368 280.523L314.928 271.188C314.92 271.155 314.903 271.125 314.878 271.1C314.728 270.925 314.644 270.829 314.627 270.812C314.454 270.623 314.323 270.4 314.242 270.157C314.162 269.915 314.135 269.659 314.163 269.407L315.305 259.382C315.337 259.089 315.276 258.79 315.129 258.529L314.853 258.065C314.737 257.858 314.67 257.627 314.66 257.39C314.649 257.152 314.693 256.915 314.79 256.697L318.782 247.764C318.832 247.648 318.857 247.524 318.857 247.4V246.233C318.857 246.003 318.904 245.776 318.994 245.564C319.085 245.353 319.218 245.162 319.385 245.004C320.196 244.251 320.657 243.552 320.765 242.908C321.209 240.14 321.017 237.639 320.188 235.406C320.025 234.951 320.025 234.455 320.188 234C320.573 232.946 320.56 231.847 320.15 230.701C320.091 230.535 320.069 230.358 320.084 230.183C320.099 230.008 320.152 229.838 320.238 229.684C320.498 229.216 320.565 228.589 320.439 227.802C320.113 225.753 320.042 223.474 320.226 220.964C320.242 220.678 320.177 220.391 320.037 220.136L318.657 217.765C318.592 217.656 318.576 217.525 318.611 217.401C318.647 217.276 318.731 217.168 318.845 217.1L319.121 216.937C319.258 216.861 319.368 216.745 319.436 216.605C319.505 216.465 319.529 216.307 319.506 216.151C319.483 215.995 319.414 215.85 319.307 215.732C319.2 215.615 319.061 215.532 318.908 215.494L315.179 214.616C314.821 214.533 314.471 214.411 314.138 214.252L302.878 209.02C302.72 208.946 302.55 208.899 302.375 208.882C299.982 208.648 297.785 207.895 295.785 206.624C295.565 206.487 295.309 206.418 295.049 206.427C294.79 206.436 294.539 206.522 294.329 206.674C294.254 206.724 294.204 206.758 294.178 206.774C293.944 206.881 293.691 206.94 293.434 206.946C293.178 206.952 292.923 206.907 292.685 206.812C286.718 204.487 280.035 202.475 272.638 200.777C270.579 200.3 268.679 200.179 266.939 200.413C263.742 200.84 258.867 201.768 252.314 203.199C251.486 203.374 250.356 203.491 248.925 203.55C247.553 203.608 246.281 204.14 245.109 205.143C244.936 205.289 244.733 205.395 244.514 205.453C244.295 205.512 244.065 205.521 243.841 205.482C239.816 204.821 235.82 205.302 231.853 206.925C231.678 207 231.51 207.097 231.351 207.213C230.33 207.975 229.836 209.196 229.87 210.877C229.895 212.324 229.686 213.88 229.242 215.544C229.126 215.968 229.079 216.409 229.104 216.849C229.523 224.486 229.811 228.639 229.97 229.308C230.238 230.471 230.113 231.65 229.594 232.846C229.478 233.111 229.414 233.396 229.405 233.687C229.368 238.078 229.694 241.842 229.054 245.857C228.585 248.809 228.744 251.917 229.531 255.179C229.672 255.744 229.727 256.328 229.694 256.91C229.41 261.954 229.841 266.676 230.987 271.075C231.238 272.037 230.97 273.606 230.184 275.78C230.134 275.922 230.104 276.07 230.096 276.219L229.631 286.106C229.615 286.348 229.627 286.588 229.669 286.821L229.895 288.277C229.92 288.46 229.928 288.649 229.92 288.841C229.702 291.451 229.523 294.015 229.38 296.532C229.297 298.113 229.736 299.464 230.698 300.585C230.788 300.693 230.851 300.822 230.881 300.959C230.912 301.096 230.909 301.239 230.874 301.375C230.74 301.852 230.518 302.157 230.209 302.291C229.996 302.383 229.811 302.527 229.667 302.711C229.523 302.896 229.424 303.116 229.378 303.356C229.332 303.595 229.34 303.848 229.401 304.094C229.463 304.34 229.576 304.573 229.732 304.775C230.552 305.846 231.075 306.544 231.301 306.871C231.411 307.033 231.486 307.216 231.521 307.409C231.556 307.601 231.549 307.798 231.502 307.987C230.983 310.221 231.238 313.056 232.267 316.494C232.309 316.618 232.33 316.75 232.33 316.883L232.757 335.514C232.757 335.631 232.778 335.75 232.82 335.866C233.782 338.375 233.891 341.102 233.146 344.046C232.577 346.33 232.456 348.964 232.782 351.95C233.401 357.471 233.853 361.456 234.138 363.907C234.33 365.505 234.786 368.006 235.506 371.41C236.092 374.17 236.368 376.709 236.335 379.026C236.326 379.503 236.439 379.974 236.661 380.393C237.791 382.576 236.686 384.208 237.176 386.315C238.088 390.305 240.259 392.873 243.691 394.019C246.176 394.847 248.473 394.433 250.657 394.609C250.791 394.625 251.063 394.538 251.473 394.345C251.691 394.236 251.867 394.086 252.001 393.893C252.133 393.694 252.331 393.547 252.559 393.476C252.788 393.405 253.034 393.415 253.256 393.505C255.03 394.241 256.817 394.211 258.616 393.417C258.902 393.29 259.219 393.253 259.528 393.309C259.837 393.365 260.122 393.511 260.348 393.73L260.65 394.019C260.918 394.271 261.238 394.463 261.589 394.582C261.939 394.701 262.312 394.744 262.683 394.709L288.643 392.112C288.784 392.095 288.924 392.057 289.057 391.999C292.848 390.431 295.245 388.875 298.66 390.079C298.853 390.148 299.059 390.169 299.261 390.138C299.463 390.107 299.653 390.027 299.815 389.904C304.108 386.616 311.439 387.106 317.276 387.47C317.418 387.478 317.561 387.47 317.703 387.445L323.151 386.579C323.498 386.524 323.817 386.356 324.062 386.1C324.306 385.844 324.462 385.515 324.506 385.161L325.46 377.269C325.464 377.269 325.467 377.268 325.469 377.266C325.472 377.263 325.473 377.26 325.473 377.257C325.473 377.253 325.472 377.25 325.469 377.248C325.467 377.246 325.464 377.244 325.46 377.244C324.205 370.051 323.544 363.794 323.477 358.475ZM321.512 328.482C321.427 328.541 321.356 328.62 321.305 328.713C321.253 328.807 321.221 328.913 321.211 329.025C321.2 329.138 321.211 329.255 321.244 329.37C321.276 329.485 321.329 329.596 321.399 329.696C321.541 329.897 321.745 330.042 321.966 330.1C322.188 330.157 322.408 330.121 322.58 330.001C322.665 329.941 322.735 329.862 322.787 329.769C322.839 329.676 322.871 329.57 322.881 329.457C322.892 329.344 322.88 329.227 322.848 329.112C322.816 328.997 322.763 328.886 322.693 328.787C322.551 328.585 322.347 328.44 322.126 328.383C321.904 328.325 321.683 328.361 321.512 328.482Z" fill="white"/>
</svg>
